<svg width="358" height="626" viewBox="0 0 358 626" fill="none" xmlns="http://www.w3.org/2000/svg">
<path d="M194.743 130.542L276.201 177.855L358 130.542L276.201 83.2125L194.743 130.542Z" fill="url(#paint0_linear_194_8079)"/>
<path d="M194.743 130.542V560.837L276.201 608.166V177.855L194.743 130.542Z" fill="url(#paint1_linear_194_8079)"/>
<path d="M276.201 177.855V608.166L358 560.837V130.542L276.201 177.855Z" fill="url(#paint2_linear_194_8079)"/>
<path d="M276.201 187.969L194.743 140.656V138.685L276.201 186.014V187.969Z" fill="#EEE9DA"/>
<path d="M358 140.656L276.201 187.969V186.014L358 138.685V140.656Z" fill="#EEE9DA"/>
<path style="mix-blend-mode:overlay" opacity="0.56" d="M351 7L323.179 139.764L276.395 158L229.821 139.764L202 7H351Z" fill="url(#paint3_linear_194_8079)"/>
<path d="M229.549 130.542L276.266 157.675L323.194 130.542L276.266 103.392L229.549 130.542Z" fill="#94E3D5"/>
<path d="M222.845 43.5117C223.154 43.7072 223.463 43.8863 223.789 44.0817C224.505 44.5052 225.221 44.9287 225.953 45.3521C226.295 45.5476 226.636 45.743 226.978 45.9221C227.808 46.3945 228.654 46.8505 229.5 47.3065C229.712 47.4205 229.923 47.5345 230.151 47.6485C231.225 48.2186 232.315 48.756 233.405 49.3098C233.682 49.4564 233.975 49.5867 234.252 49.717C235.081 50.1241 235.928 50.515 236.79 50.9059C237.164 51.085 237.538 51.2479 237.913 51.4108C238.743 51.7854 239.572 52.1437 240.419 52.502C240.76 52.6486 241.086 52.7951 241.427 52.9417C242.599 53.4303 243.771 53.9026 244.975 54.375C245.105 54.4238 245.235 54.4727 245.365 54.5215C246.439 54.9287 247.513 55.3359 248.603 55.7268C248.994 55.857 249.368 56.0036 249.759 56.1339C250.637 56.4434 251.516 56.7365 252.395 57.0297C252.785 57.16 253.176 57.2903 253.566 57.4043C254.949 57.844 256.333 58.2675 257.732 58.6746C257.878 58.7235 258.025 58.7561 258.171 58.7887C259.441 59.147 260.742 59.489 262.028 59.831C262.402 59.9287 262.793 60.0265 263.167 60.1242C264.534 60.4662 265.917 60.7919 267.316 61.0851C267.398 61.1014 267.463 61.1177 267.544 61.1339C269.008 61.4434 270.473 61.7366 271.954 62.0134C272.312 62.0786 272.686 62.1437 273.044 62.2089C274.736 62.502 276.429 62.7789 278.137 63.0232C278.267 63.0395 278.397 63.0558 278.528 63.0721C280.155 63.3001 281.815 63.4955 283.458 63.6584C283.8 63.691 284.125 63.7235 284.467 63.7561C285.85 63.8864 287.233 64.0167 288.633 64.0981C288.681 64.0981 288.714 64.0981 288.763 64.0981C290.113 64.1958 291.48 64.261 292.831 64.3099C293.319 64.3261 293.807 64.3424 294.311 64.3587C295.109 64.375 295.906 64.3913 296.72 64.4076C297.24 64.4076 297.777 64.4076 298.314 64.4076C299.095 64.4076 299.893 64.4076 300.69 64.3913C301.243 64.3913 301.78 64.375 302.334 64.3587C303.017 64.3424 303.717 64.3099 304.4 64.2773C304.97 64.2447 305.539 64.2284 306.125 64.1959C306.825 64.1633 307.508 64.0981 308.208 64.0493C308.777 64.0004 309.363 63.9678 309.933 63.919C310.632 63.8538 311.316 63.7887 312.015 63.7235C312.585 63.6584 313.154 63.6095 313.724 63.5444C314.424 63.4629 315.14 63.3652 315.856 63.2675C316.409 63.1861 316.962 63.1209 317.532 63.0395C318.361 62.9255 319.208 62.7789 320.037 62.6486C320.493 62.5672 320.965 62.502 321.421 62.4206C322.495 62.2252 323.552 62.0297 324.626 61.818C324.87 61.7691 325.131 61.7203 325.375 61.6714C328.727 56.2968 330.256 50.9222 330.24 45.6453L330.273 58.8049C330.273 64.0818 328.759 69.4565 325.407 74.8311C325.375 74.8311 325.342 74.8311 325.31 74.8474C325.098 74.8962 324.87 74.9288 324.659 74.9777C323.585 75.1894 322.527 75.4011 321.453 75.5803C320.997 75.6617 320.526 75.7268 320.07 75.8083C319.24 75.9386 318.394 76.0852 317.564 76.1992C317.434 76.2155 317.32 76.248 317.19 76.2643C316.751 76.3295 316.327 76.3783 315.888 76.4272C315.188 76.5249 314.472 76.6226 313.773 76.7041C313.203 76.7692 312.634 76.8181 312.064 76.8832C311.364 76.9483 310.681 77.0298 309.981 77.0786C309.802 77.0786 309.607 77.1112 309.428 77.1275C309.038 77.1601 308.647 77.1764 308.257 77.2089C307.557 77.2578 306.857 77.3067 306.174 77.3555C305.604 77.3881 305.018 77.4207 304.449 77.437C303.765 77.4695 303.066 77.5021 302.382 77.5184C302.138 77.5184 301.878 77.5347 301.634 77.551C301.325 77.551 301.032 77.551 300.739 77.551C299.942 77.551 299.16 77.5672 298.363 77.5672C297.826 77.5672 297.305 77.5672 296.768 77.5672C295.971 77.5672 295.158 77.5347 294.36 77.5184C294.019 77.5184 293.677 77.5184 293.335 77.5021C293.189 77.5021 293.042 77.4858 292.896 77.4858C291.529 77.437 290.162 77.3718 288.795 77.2741C288.763 77.2741 288.73 77.2741 288.698 77.2741C287.298 77.1764 285.915 77.0624 284.516 76.9321C284.386 76.9321 284.239 76.9158 284.109 76.8995C283.914 76.8832 283.718 76.8506 283.523 76.8343C281.863 76.6552 280.22 76.476 278.576 76.248C278.446 76.2317 278.316 76.2155 278.186 76.1992C276.477 75.9549 274.785 75.678 273.093 75.3848C272.914 75.3523 272.719 75.336 272.523 75.2871C272.344 75.2545 272.165 75.222 272.003 75.1894C270.522 74.9125 269.057 74.6356 267.593 74.3099C267.511 74.2936 267.446 74.2773 267.365 74.261C265.966 73.9516 264.599 73.6259 263.216 73.3001C262.825 73.2024 262.451 73.1047 262.077 73.007C260.775 72.6812 259.489 72.3392 258.22 71.9646C258.074 71.9158 257.927 71.8832 257.781 71.8506C256.381 71.4434 254.998 71.02 253.615 70.5802C253.469 70.5314 253.322 70.4988 253.16 70.45C252.915 70.3685 252.688 70.2871 252.444 70.2056C251.565 69.9125 250.686 69.6193 249.808 69.3099C249.417 69.1796 249.043 69.0493 248.652 68.9027C247.562 68.5118 246.488 68.1209 245.414 67.6975C245.284 67.6486 245.154 67.5998 245.024 67.5509C243.836 67.0949 242.648 66.6063 241.493 66.1177C241.151 65.9711 240.825 65.8245 240.484 65.6779C239.638 65.3196 238.808 64.945 237.978 64.5867C237.604 64.4239 237.229 64.2447 236.855 64.0818C236.009 63.691 235.163 63.2838 234.317 62.8929C234.04 62.7626 233.747 62.616 233.47 62.4857C232.364 61.9483 231.29 61.3945 230.216 60.8245C229.988 60.7105 229.777 60.5965 229.565 60.4662C228.719 60.0102 227.873 59.5541 227.043 59.0818C226.701 58.8864 226.36 58.6909 226.018 58.5118C225.286 58.0883 224.57 57.6649 223.854 57.2414C223.658 57.1274 223.447 56.9971 223.235 56.8831C223.121 56.818 223.024 56.7528 222.91 56.6877C221.901 56.0688 220.908 55.4499 219.932 54.8147L219.9 41.655C220.876 42.2902 221.869 42.9091 222.877 43.528L222.845 43.5117Z" fill="#D5D9BE"/>
<path d="M219.867 41.655C246.179 58.7235 285.72 69.9125 325.375 61.6714C339.727 38.7071 320.558 15.7429 291.187 0.43335L245.984 15.4986L219.867 41.655Z" fill="#3E6457"/>
<path d="M227.824 41.1176C240.354 48.7072 254.803 54.3912 269.871 57.6323C287.038 61.3294 303.977 61.6877 320.298 58.7072C325.489 49.2446 324.919 39.4237 318.622 29.4726C313.073 20.7266 303.326 12.3226 290.26 5.04248L250.686 18.2184L227.824 41.1176Z" fill="#5F846C"/>
<path d="M259.457 36.7039L259.424 42.3065H298.851L298.933 27.2902H289.267L289.202 36.7039H259.457Z" fill="#FDF7FB"/>
<path d="M307.394 207.79L330.273 194.548V446.553L307.394 459.794V207.79Z" fill="url(#paint4_linear_194_8079)"/>
<path d="M330.273 446.553L307.394 459.794V433.312L330.273 446.553Z" fill="url(#paint5_linear_194_8079)"/>
<path style="mix-blend-mode:overlay" opacity="0.56" d="M229.549 158V387.914L114.522 448.628L0 387.914V158H229.549Z" fill="url(#paint6_linear_194_8079)"/>
<path d="M-4.29197e-06 335.372L114.522 396.086L229.549 335.372L114.522 274.673L-4.29197e-06 335.372Z" fill="url(#paint7_linear_194_8079)"/>
<path d="M-3.68459e-06 335.372V565.301L114.522 626V396.086L-3.68459e-06 335.372Z" fill="url(#paint8_linear_194_8079)"/>
<path d="M114.522 396.086V626L229.549 565.301V335.372L114.522 396.086Z" fill="url(#paint9_linear_194_8079)"/>
<path d="M114.522 409.073L-3.68459e-06 348.359V345.833L114.522 406.547V409.073Z" fill="#EEE9DA"/>
<path d="M229.549 348.359L114.522 409.073V406.547L229.549 345.833V348.359Z" fill="#EEE9DA"/>
<g style="mix-blend-mode:multiply" opacity="0.4">
<path d="M66.2758 358.24C72.9311 354.734 83.7031 354.719 90.3258 358.225C96.981 361.747 96.916 367.453 90.2444 370.96C83.5892 374.466 72.8334 374.466 66.1944 370.945C59.5717 367.438 59.6043 361.747 66.2758 358.24Z" fill="#1A9BDB"/>
</g>
<path d="M65.9015 396.859C65.9015 396.859 66.7639 396.963 66.9267 397.26C67.0894 397.557 67.1707 400.187 67.1545 400.544C67.1545 400.544 64.8601 402.594 62.7285 403.605C60.5806 404.615 58.7419 405.046 57.912 404.392C57.0821 403.739 57.6028 402.966 59.3602 401.658C61.1176 400.351 62.8261 396.844 62.8261 396.859H65.9015Z" fill="#103450"/>
<path d="M61.5895 388.835C61.5895 388.835 62.4519 388.731 62.696 388.984C62.9401 389.236 63.7536 391.762 63.835 392.104C63.835 392.104 62.1915 394.63 60.4016 396.086C58.6117 397.557 56.9357 398.404 55.9594 397.958C54.9831 397.513 55.2597 396.666 56.594 394.987C57.9283 393.308 58.6117 389.533 58.6117 389.533L61.5895 388.82V388.835Z" fill="#103450"/>
<path d="M90.0329 356.026C90.098 359.741 89.5773 365.655 87.4782 366.977C84.2726 368.983 71.1248 378.211 71.1248 378.211L67.545 397.201C67.545 397.201 65.3158 399.221 61.8498 397.201C61.8498 397.201 64.1767 375.848 64.6812 373.976C65.1856 372.104 77.3408 360.038 77.3408 360.038L90.0492 356.041L90.0329 356.026Z" fill="#103450"/>
<path d="M79.0168 354.08C80.1233 357.661 80.8881 361.896 79.0981 363.56C77.1618 365.358 57.2123 370.796 57.2123 370.796L63.119 388.939C63.119 388.939 61.5244 391.406 57.6028 390.262C57.6028 390.262 46.961 369.518 46.9284 367.587C46.8959 365.655 67.0243 356.754 67.0243 356.754L79.0168 354.05V354.08Z" fill="#103450"/>
<path d="M46.9447 361.836L66.4711 372.193C66.4711 372.193 66.3734 372.089 66.3734 372L46.847 361.643C46.847 361.732 46.8796 361.806 46.9447 361.836Z" fill="#011C63"/>
<path d="M66.3734 371.613L46.847 361.257V361.643L66.3734 372V371.613Z" fill="#011C63"/>
<path d="M81.067 363.723L61.5406 353.367L46.961 361.049L66.5036 371.405L81.067 363.723Z" fill="#FCFEFB"/>
<path d="M51.273 360.543C50.9801 360.692 50.9639 360.96 51.273 361.123L65.9504 368.909C66.2433 369.058 66.7477 369.058 67.0406 368.909L72.5893 365.982C72.8822 365.833 72.866 365.566 72.5893 365.417L57.912 357.631C57.6028 357.468 57.1309 357.468 56.838 357.631L51.2893 360.558L51.273 360.543Z" fill="#103450"/>
<path d="M65.6412 372.015L59.588 362.252L40.0616 351.895L46.1148 361.658C46.1148 361.658 46.1473 361.702 46.1799 361.717L65.7063 372.074C65.7063 372.074 65.6575 372.044 65.6412 372.015Z" fill="#FCFEFB"/>
<path d="M60.0436 361.004L59.8809 361.168C59.5555 361.509 59.4253 362 59.588 362.252L65.6412 372.015C65.869 372.46 66.5199 372.282 66.6989 372.178L80.3999 364.957C80.7741 364.763 81.067 364.288 81.067 363.902V363.723L66.4873 371.405L60.0274 360.989L60.0436 361.004Z" fill="#FCFEFB"/>
<path d="M60.0436 361.004L40.5172 350.647L40.3545 350.811C40.0291 351.153 39.8989 351.643 40.0616 351.895L59.588 362.252C59.4253 362 59.5555 361.509 59.8809 361.168L60.0436 361.004Z" fill="#FCFEFB"/>
<path d="M61.8335 357.928C61.7034 358.003 61.7034 358.107 61.8335 358.181L66.6826 360.751C66.8128 360.826 67.0243 360.826 67.1545 360.751L69.579 359.474C69.7092 359.399 69.7092 359.295 69.579 359.221L64.73 356.65C64.5998 356.576 64.3882 356.576 64.2581 356.65L61.8335 357.928Z" fill="#103450"/>
<path d="M69.8882 338.418C69.8882 338.418 67.7403 343.396 67.3009 344.748C66.8616 346.1 61.801 354.243 61.5081 354.659C61.2152 355.075 57.4889 357.78 57.4889 358.196C57.4889 358.612 57.7818 359.37 58.9697 359.503C60.1575 359.637 63.3631 357.512 63.3631 357.512C63.3631 357.512 64.1767 359.384 64.5184 357.141C64.8601 354.882 63.9001 355.239 64.7137 354.08C64.7137 354.08 70.0672 350.811 71.3201 346.591C72.5893 342.386 71.4666 338.849 71.4666 338.849L69.8882 338.418Z" fill="#FFC6A0"/>
<path d="M68.2772 339.191C69.2698 335.016 71.3364 329.548 73.289 329.325L71.4828 341.256C71.4828 341.256 69.6766 340.721 68.2772 339.191Z" fill="#FCFEFB"/>
<path d="M85.5744 330.647C85.5744 330.647 88.9264 331.776 91.8879 333.99L90.0329 357.765C90.0329 357.765 86.1764 360.35 78.2683 358.463C71.8408 356.933 70.1485 354.451 70.1485 354.451C70.1485 354.451 69.5628 342.802 70.1485 337.126C70.7506 331.464 73.2728 329.31 73.2728 329.31C74.6722 328.923 77.7801 329.087 77.7801 329.087L85.5581 330.632L85.5744 330.647Z" fill="#FCFEFB"/>
<path d="M76.8363 314.48C76.8363 314.48 81.0019 313.544 85.0537 314.941C89.1054 316.323 86.746 321.613 85.5418 324.094C84.354 326.576 83.5241 325.684 83.5241 325.684L74.6884 322.43C74.6884 322.43 74.4281 322.177 74.5908 318.804C74.7535 315.431 76.8363 314.495 76.8363 314.495V314.48Z" fill="#103450"/>
<path d="M84.2726 329.325L84.4516 323.857C84.4516 323.857 85.9649 323.752 85.7046 322.252C85.4442 320.751 83.8984 321.732 83.638 322.177C83.638 322.177 83.2963 316.992 80.286 316.501C77.2757 315.996 74.363 316.59 74.2816 317.928C74.2003 319.265 74.1026 323.931 74.2816 325.669C74.4606 327.408 75.9414 328.121 78.6913 328.047L78.4961 330.855C78.4961 330.855 79.8792 331.776 83.7194 330.915L84.2726 329.31V329.325Z" fill="#FFC6A0"/>
<path d="M78.6425 328.641C78.6425 328.641 78.1218 328.641 77.9103 328.745C77.6987 328.849 76.6085 329.86 76.576 330.959C76.5434 332.059 77.0479 333.337 77.0479 333.337L79.5375 331.286L81.0996 334.05C81.0996 334.05 82.0759 333.871 83.4102 332.95C84.7445 332.029 85.5581 330.662 85.5581 330.662C85.135 329.666 84.8421 329.072 84.8421 329.072C84.7445 328.849 84.2726 328.73 84.2726 328.73C84.2726 328.73 81.6203 330.929 79.5375 331.033C79.5375 331.033 78.789 330.721 78.6425 328.641Z" fill="#103450"/>
<path d="M90.3746 346.323C89.5773 344.481 87.8199 340.008 88.3081 337.661C88.9264 334.659 91.8879 333.99 91.8879 333.99C93.1246 335.283 94.9308 339.563 96.1186 343.129C94.1823 344.169 92.2947 345.268 90.3746 346.323Z" fill="#FCFEFB"/>
<path d="M71.011 315.699C71.1899 315.179 71.4665 314.674 71.8571 314.243C73.8748 311.984 76.8038 313.307 79.4073 312.891C80.0419 312.787 80.5626 312.519 81.2298 312.489C82.8244 312.43 84.5818 313.217 85.2327 314.599C85.3466 314.837 85.4605 315.105 85.5581 315.372C85.7208 315.788 85.8347 316.234 85.8347 316.65C85.8347 317.556 85.3954 318.403 85.2978 319.295C85.1513 320.588 84.3377 321.969 83.5729 323.188C83.3451 323.128 83.101 323.069 82.8732 323.01C82.9383 322.445 82.743 321.821 82.4664 321.286C82.0271 320.424 81.604 319.488 82.1572 318.582C80.6114 319.31 80.3348 319.399 78.5286 319.087C77.4058 318.894 76.2993 319.399 75.2417 319.8C74.184 320.201 72.8985 320.484 71.9547 319.904C71.2225 319.458 70.897 318.611 70.7994 317.824C70.718 317.111 70.7831 316.353 71.011 315.669V315.699Z" fill="#103450"/>
<path d="M94.345 344.109C94.345 344.109 95.6956 350.41 94.5077 351.673C93.3199 352.936 82.0108 359.087 81.0833 359.979C80.1558 360.855 77.0316 363.307 74.9325 363.263C72.8334 363.218 71.7594 365.031 70.718 365.209C69.6604 365.387 69.8231 362.921 70.1323 361.97C70.5065 360.841 73.0287 360.633 73.0287 360.633C73.0287 360.633 70.3113 359.414 74.5745 359.919L77.0478 359.548L89.5285 348.627L89.2844 346.754L94.345 344.109Z" fill="#FFC6A0"/>
<g opacity="0.6">
<path d="M148.059 316.07L148.091 305.149L139.955 300.855L139.923 311.776L148.059 316.07ZM117.093 299.74L117.142 283.306L109.006 279.012L108.957 295.446L117.093 299.74ZM148.091 305.149V298.388L139.972 294.094V300.855L148.091 305.149ZM132.568 307.898L132.633 288.759L124.513 284.48L124.448 303.619L132.568 307.898ZM101.602 291.583L101.684 265.683L93.5477 261.389L93.4663 287.288L101.602 291.583ZM117.126 283.306L117.158 273.128L109.022 268.834L108.99 279.012L117.126 283.306ZM132.617 288.759L132.649 276.902L124.53 272.623L124.497 284.48L132.617 288.759ZM101.684 265.683L101.732 249.651L93.5965 245.356L93.5477 261.389L101.684 265.683ZM154.079 326.293C154.437 326.487 154.73 326.338 154.73 325.967L154.893 274.361C154.893 273.975 154.6 273.514 154.242 273.336C153.884 273.143 153.591 273.306 153.591 273.678L153.429 324.599L82.2712 287.08C81.9132 286.887 81.6203 287.036 81.6203 287.422C81.6203 287.794 81.9132 288.254 82.2712 288.447L154.079 326.308M140.086 258.833C140.802 259.205 141.387 258.908 141.387 258.15C141.387 257.392 140.818 256.486 140.086 256.099L119.323 245.148C118.607 244.777 118.021 245.074 118.021 245.832C118.021 246.59 118.607 247.496 119.323 247.882L140.086 258.833ZM114.929 245.564C115.645 245.936 116.231 245.639 116.231 244.881C116.231 244.123 115.661 243.217 114.929 242.83L110.145 240.304C109.429 239.933 108.843 240.23 108.843 240.988C108.843 241.746 109.413 242.652 110.145 243.038L114.929 245.564ZM154.275 266.545V263.336L146.497 259.235V262.444L154.275 266.545ZM126.238 244.688C126.596 244.881 126.922 244.896 127.166 244.777C127.41 244.658 127.54 244.376 127.54 244.019L127.507 243.737L127.442 243.454L127.312 243.142L127.149 242.86C126.905 242.474 126.564 242.176 126.222 241.998C125.88 241.82 125.538 241.76 125.294 241.894L125.132 242.013L125.018 242.191L124.936 242.399V242.667C124.92 243.023 125.05 243.439 125.278 243.826C125.522 244.212 125.848 244.524 126.206 244.717M140.086 252.028C140.802 252.399 141.387 252.102 141.387 251.344C141.387 250.587 140.818 249.68 140.086 249.294L130.029 243.989C129.313 243.618 128.728 243.915 128.728 244.673C128.728 245.431 129.297 246.337 130.029 246.723L140.086 252.028ZM122.186 242.592C122.902 242.964 123.488 242.667 123.488 241.909C123.488 241.151 122.902 240.245 122.186 239.858L110.129 233.499C109.413 233.127 108.827 233.424 108.827 234.182C108.827 234.94 109.397 235.846 110.129 236.233L122.186 242.592ZM154.275 259.74V256.53L146.497 252.429V255.639L154.275 259.74ZM76.6899 205.995L161.125 250.512C163.289 251.656 165.031 254.42 165.014 256.664L164.754 338.463C164.754 340.722 162.997 341.628 160.832 340.499L76.397 295.981C74.2328 294.837 72.4917 292.088 72.508 289.829L72.7683 208.03C72.7683 205.772 74.5257 204.851 76.6899 205.995Z" fill="#66AE90"/>
<path d="M154.242 273.321C154.6 273.514 154.893 273.975 154.893 274.346L154.73 325.952C154.73 326.323 154.437 326.472 154.079 326.278L82.2712 288.418C81.9132 288.225 81.6203 287.764 81.6203 287.392C81.6203 287.006 81.9132 286.857 82.2712 287.051L153.429 324.57L153.591 273.648C153.591 273.261 153.884 273.113 154.242 273.306" fill="#A5FFFF"/>
<path d="M139.955 300.87L148.091 305.149L148.059 316.07L139.923 311.791L139.955 300.87Z" fill="#FDF7FB"/>
<path d="M124.497 284.48L132.633 288.774L132.568 307.913L124.448 303.633L124.497 284.48Z" fill="#FDF7FB"/>
<path d="M109.006 279.027L117.142 283.306L117.093 299.755L108.957 295.461L109.006 279.027Z" fill="#FDF7FB"/>
<path d="M93.5477 261.404L101.684 265.683L101.602 291.583L93.4663 287.303L93.5477 261.404Z" fill="#FDF7FB"/>
<path d="M139.972 294.109L148.108 298.388L148.091 305.149L139.955 300.87L139.972 294.109Z" fill="#A5FFFF"/>
<path d="M124.546 272.623L132.666 276.902L132.633 288.774L124.497 284.48L124.546 272.623Z" fill="#A5FFFF"/>
<path d="M109.039 268.834L117.175 273.128L117.142 283.306L109.006 279.027L109.039 268.834Z" fill="#A5FFFF"/>
<path d="M93.5965 245.356L101.732 249.65L101.684 265.683L93.5476 261.404L93.5965 245.356Z" fill="#A5FFFF"/>
<path d="M146.513 252.399L154.291 256.5V259.71L146.497 255.609L146.513 252.399Z" fill="#FDF7FB"/>
<path d="M146.48 259.22L154.275 263.336L154.258 266.53L146.48 262.429V259.22Z" fill="#FDF7FB"/>
<path d="M130.062 243.959L140.118 249.264C140.834 249.636 141.42 250.557 141.42 251.315C141.42 252.073 140.834 252.37 140.118 251.998L130.062 246.694C129.346 246.322 128.76 245.401 128.76 244.643C128.76 243.885 129.346 243.588 130.062 243.959Z" fill="#A5FFFF"/>
<path d="M126.238 241.968C126.58 242.147 126.922 242.459 127.166 242.83L127.328 243.113L127.458 243.425L127.524 243.707L127.556 243.989C127.556 244.346 127.426 244.628 127.182 244.747C126.938 244.866 126.612 244.851 126.254 244.658C125.896 244.465 125.587 244.153 125.327 243.766C125.083 243.395 124.953 242.964 124.953 242.607V242.34L125.05 242.132L125.164 241.954L125.327 241.835C125.571 241.716 125.913 241.76 126.254 241.939" fill="#A5FFFF"/>
<path d="M110.161 233.484L122.219 239.844C122.935 240.215 123.521 241.136 123.521 241.894C123.521 242.652 122.935 242.949 122.219 242.578L110.161 236.218C109.445 235.846 108.86 234.925 108.86 234.167C108.86 233.41 109.445 233.112 110.161 233.484Z" fill="#A5FFFF"/>
<path d="M119.323 245.148L140.086 256.099C140.802 256.471 141.387 257.392 141.387 258.15C141.387 258.908 140.802 259.205 140.086 258.833L119.323 247.882C118.607 247.511 118.021 246.59 118.021 245.832C118.021 245.074 118.607 244.777 119.323 245.148Z" fill="#A5FFFF"/>
<path d="M110.145 240.304L114.929 242.83C115.645 243.202 116.231 244.123 116.231 244.881C116.231 245.639 115.645 245.936 114.929 245.564L110.145 243.038C109.429 242.667 108.843 241.746 108.843 240.988C108.843 240.23 109.429 239.933 110.145 240.304Z" fill="#A5FFFF"/>
</g>
<defs>
<linearGradient id="paint0_linear_194_8079" x1="263.378" y1="93.7663" x2="289.374" y2="167.188" gradientUnits="userSpaceOnUse">
<stop stop-color="#5B7A6B"/>
<stop offset="1" stop-color="#8B9E8F"/>
</linearGradient>
<linearGradient id="paint1_linear_194_8079" x1="276.201" y1="369.354" x2="194.743" y2="369.354" gradientUnits="userSpaceOnUse">
<stop stop-color="#406659"/>
<stop offset="1" stop-color="#5C826B"/>
</linearGradient>
<linearGradient id="paint2_linear_194_8079" x1="358" y1="369.354" x2="276.201" y2="369.354" gradientUnits="userSpaceOnUse">
<stop stop-color="#44695A"/>
<stop offset="1" stop-color="#597C66"/>
</linearGradient>
<linearGradient id="paint3_linear_194_8079" x1="254.657" y1="5.15012" x2="287.912" y2="144.535" gradientUnits="userSpaceOnUse">
<stop offset="0.04" stop-color="#93FFFD" stop-opacity="0"/>
<stop offset="0.14" stop-color="#95FEFD" stop-opacity="0.07"/>
<stop offset="0.33" stop-color="#9AFDFD" stop-opacity="0.25"/>
<stop offset="0.61" stop-color="#A3FCFE" stop-opacity="0.54"/>
<stop offset="0.95" stop-color="#B0FBFE" stop-opacity="0.94"/>
<stop offset="1" stop-color="#B2FBFF"/>
</linearGradient>
<linearGradient id="paint4_linear_194_8079" x1="307.703" y1="327.383" x2="335.626" y2="326.83" gradientUnits="userSpaceOnUse">
<stop stop-color="#3E6457"/>
<stop offset="1" stop-color="#EEE9DA"/>
</linearGradient>
<linearGradient id="paint5_linear_194_8079" x1="299.535" y1="446.7" x2="322.495" y2="446.244" gradientUnits="userSpaceOnUse">
<stop stop-color="#3E6457"/>
<stop offset="1" stop-color="#EEE9DA"/>
</linearGradient>
<linearGradient id="paint6_linear_194_8079" x1="114.978" y1="186.069" x2="114.557" y2="395.685" gradientUnits="userSpaceOnUse">
<stop offset="0.04" stop-color="#93FFFD" stop-opacity="0"/>
<stop offset="0.14" stop-color="#95FEFD" stop-opacity="0.07"/>
<stop offset="0.33" stop-color="#9AFDFD" stop-opacity="0.25"/>
<stop offset="0.61" stop-color="#A3FCFE" stop-opacity="0.54"/>
<stop offset="0.95" stop-color="#B0FBFE" stop-opacity="0.94"/>
<stop offset="1" stop-color="#B2FBFF"/>
</linearGradient>
<linearGradient id="paint7_linear_194_8079" x1="96.4929" y1="288.195" x2="127.5" y2="384.189" gradientUnits="userSpaceOnUse">
<stop stop-color="#507163"/>
<stop offset="1" stop-color="#97A798"/>
</linearGradient>
<linearGradient id="paint8_linear_194_8079" x1="114.522" y1="480.694" x2="-7.62939e-06" y2="480.694" gradientUnits="userSpaceOnUse">
<stop stop-color="#3E6457"/>
<stop offset="1" stop-color="#61876E"/>
</linearGradient>
<linearGradient id="paint9_linear_194_8079" x1="229.549" y1="480.694" x2="114.522" y2="480.694" gradientUnits="userSpaceOnUse">
<stop stop-color="#3E6457"/>
<stop offset="1" stop-color="#5B7E67"/>
</linearGradient>
</defs>
</svg>
