<svg width="447" height="546" viewBox="0 0 447 546" fill="none" xmlns="http://www.w3.org/2000/svg">
<g clip-path="url(#clip0_186_229)">
<path style="mix-blend-mode:overlay" opacity="0.56" d="M0 0V366.859L167.867 463.732L335 366.859V0H0Z" fill="url(#paint0_linear_186_229)"/>
<path d="M335 206.588L167.867 303.461L0 206.588L167.867 109.716L335 206.588Z" fill="url(#paint1_linear_186_229)"/>
<path d="M335 206.588V449.127L167.867 546V303.461L335 206.588Z" fill="url(#paint2_linear_186_229)"/>
<path d="M167.867 303.461V546L0 449.127V206.588L167.867 303.461Z" fill="url(#paint3_linear_186_229)"/>
<path d="M167.867 321.793L335 224.921V223.261L167.867 320.134V321.793Z" fill="#D7D095"/>
<path d="M0 224.921L167.867 321.793V320.134L0 223.27V224.921Z" fill="#D9D296"/>
<path style="mix-blend-mode:overlay" opacity="0.56" d="M154.456 77.1774L161.087 124.302L168.155 128.372L175.167 124.302L180.99 77.1774H154.456Z" fill="url(#paint4_linear_186_229)"/>
<path d="M161.087 124.302L168.108 120.231L175.167 124.302L168.155 128.372L161.087 124.302Z" fill="#A5FFFF"/>
<path style="mix-blend-mode:overlay" opacity="0.56" d="M10.5782 159.974L17.2093 207.098L24.2769 211.169L31.2887 207.098L37.1118 159.974H10.5782Z" fill="url(#paint5_linear_186_229)"/>
<path d="M17.2093 207.098L24.2304 203.028L31.2887 207.098L24.2769 211.169L17.2093 207.098Z" fill="#A5FFFF"/>
<path style="mix-blend-mode:overlay" opacity="0.56" d="M300.804 159.974L307.435 207.098L314.503 211.169L321.515 207.098L327.338 159.974H300.804Z" fill="url(#paint6_linear_186_229)"/>
<path d="M307.436 207.098L314.457 203.028L321.515 207.098L314.503 211.169L307.436 207.098Z" fill="#A5FFFF"/>
<path style="mix-blend-mode:overlay" opacity="0.56" d="M154.456 241.111L161.087 288.235L168.155 292.306L175.167 288.235L180.99 241.111H154.456Z" fill="url(#paint7_linear_186_229)"/>
<path d="M161.087 288.235L168.108 284.164L175.167 288.235L168.155 292.306L161.087 288.235Z" fill="#A5FFFF"/>
<path d="M191.847 145.156C193.082 144.442 195.06 144.442 196.286 145.156L265.476 185.298C266.702 186.012 266.702 187.162 265.476 187.867L148.54 255.271C147.305 255.985 145.317 255.975 144.092 255.271L74.9016 215.129C73.6757 214.415 73.6849 213.274 74.9201 212.56L191.856 145.156H191.847Z" fill="url(#paint8_linear_186_229)"/>
<path d="M194.781 158.157C194.493 158.324 194.01 158.324 193.722 158.157L188.893 155.356C188.605 155.189 188.605 154.911 188.893 154.744L193.76 151.944C194.048 151.777 194.53 151.777 194.818 151.944L199.648 154.744C199.936 154.911 199.936 155.189 199.648 155.356L194.781 158.157ZM192.654 159.381C192.942 159.214 192.942 158.936 192.654 158.769L187.825 155.968C187.537 155.801 187.054 155.801 186.766 155.968L181.9 158.769C181.612 158.936 181.612 159.214 181.9 159.381L186.729 162.181C187.017 162.348 187.5 162.348 187.788 162.181L192.654 159.381ZM185.652 163.414C185.949 163.238 185.94 162.969 185.652 162.802L180.823 160.002C180.535 159.835 180.061 159.826 179.764 160.002L174.916 162.802C174.619 162.979 174.628 163.247 174.916 163.414L179.745 166.215C180.033 166.382 180.507 166.391 180.804 166.215L185.652 163.414ZM213.523 163.414C213.811 163.247 213.811 162.969 213.523 162.802L208.694 160.002C208.406 159.835 207.923 159.835 207.635 160.002L202.768 162.802C202.48 162.969 202.48 163.247 202.768 163.414L207.598 166.215C207.886 166.382 208.368 166.382 208.656 166.215L213.523 163.414ZM190.323 168.755L195.171 165.955C195.468 165.779 195.459 165.51 195.171 165.343L190.342 162.543C190.054 162.376 189.58 162.367 189.283 162.543L184.435 165.343C184.138 165.519 184.129 165.797 184.426 165.964L189.255 168.765C189.543 168.932 190.026 168.932 190.323 168.765V168.755ZM201.7 164.026C201.412 163.859 200.929 163.859 200.641 164.026L195.775 166.827C195.487 166.994 195.487 167.272 195.775 167.439L200.604 170.239C200.892 170.406 201.375 170.406 201.663 170.239L206.53 167.439C206.817 167.272 206.817 166.994 206.53 166.827L201.7 164.026ZM171.665 171.472C171.953 171.305 171.953 171.027 171.665 170.86L166.836 168.06C166.548 167.893 166.065 167.893 165.777 168.06L160.911 170.86C160.623 171.027 160.623 171.305 160.911 171.472L165.74 174.273C166.028 174.44 166.511 174.44 166.799 174.273L171.665 171.472ZM176.327 176.814L181.194 174.013C181.482 173.846 181.482 173.568 181.194 173.401L176.365 170.601C176.077 170.434 175.594 170.434 175.306 170.601L170.439 173.401C170.151 173.568 170.151 173.846 170.439 174.013L175.269 176.814C175.557 176.98 176.04 176.98 176.327 176.814ZM164.672 175.506C164.96 175.339 164.96 175.061 164.672 174.894L159.843 172.094C159.555 171.927 159.072 171.927 158.784 172.094L153.917 174.894C153.629 175.061 153.629 175.339 153.917 175.506L158.747 178.306C159.035 178.473 159.518 178.473 159.805 178.306L164.672 175.506ZM186.608 178.306C186.896 178.473 187.379 178.473 187.667 178.306L192.534 175.506C192.822 175.339 192.822 175.061 192.534 174.894L187.704 172.094C187.416 171.927 186.934 171.927 186.646 172.094L181.779 174.894C181.491 175.061 181.491 175.339 181.779 175.506L186.608 178.306ZM163.446 177.426C163.158 177.592 163.158 177.871 163.446 178.038L168.275 180.838C168.563 181.005 169.046 181.005 169.334 180.838L174.201 178.038C174.489 177.871 174.489 177.592 174.201 177.426L169.371 174.625C169.083 174.458 168.601 174.458 168.313 174.625L163.446 177.426ZM157.679 179.53C157.967 179.364 157.967 179.085 157.679 178.918L152.849 176.118C152.561 175.951 152.079 175.951 151.791 176.118L146.924 178.918C146.636 179.085 146.636 179.364 146.924 179.53L151.753 182.331C152.041 182.498 152.524 182.498 152.812 182.331L157.679 179.53ZM179.615 182.331C179.903 182.498 180.386 182.498 180.674 182.331L185.54 179.53C185.828 179.364 185.828 179.085 185.54 178.918L180.711 176.118C180.423 175.951 179.94 175.951 179.652 176.118L174.786 178.918C174.498 179.085 174.498 179.364 174.786 179.53L179.615 182.331ZM217.944 182.016C217.646 182.192 217.656 182.461 217.944 182.628L219.392 183.462C219.68 183.629 220.154 183.638 220.451 183.462L226.256 180.115C226.544 179.948 226.544 179.67 226.256 179.503L224.807 178.668C224.519 178.501 224.036 178.501 223.748 178.668L217.944 182.016ZM156.453 181.459C156.156 181.635 156.165 181.904 156.453 182.071L161.282 184.872C161.57 185.038 162.044 185.048 162.341 184.872L167.198 182.071C167.495 181.895 167.486 181.626 167.198 181.459L162.369 178.659C162.081 178.492 161.607 178.483 161.31 178.659L156.453 181.459ZM173.718 180.152C173.43 179.985 172.947 179.985 172.659 180.152L167.793 182.952C167.505 183.119 167.505 183.397 167.793 183.564L172.622 186.364C172.91 186.531 173.393 186.531 173.681 186.364L178.547 183.564C178.835 183.397 178.835 183.119 178.547 182.952L173.718 180.152ZM149.459 185.493C149.162 185.669 149.172 185.938 149.459 186.105L154.289 188.905C154.577 189.072 155.05 189.081 155.348 188.905L160.196 186.105C160.493 185.929 160.483 185.66 160.196 185.493L155.366 182.692C155.078 182.526 154.605 182.516 154.307 182.692L149.459 185.493ZM186.915 186.772C187.203 186.606 187.221 186.337 186.915 186.16L182.095 183.36C181.798 183.184 181.324 183.193 181.036 183.36L176.17 186.16C175.882 186.327 175.863 186.596 176.17 186.772L180.99 189.573C181.287 189.749 181.761 189.74 182.048 189.573L186.915 186.772ZM143.683 187.607C143.971 187.44 143.971 187.162 143.683 186.995L138.853 184.195C138.566 184.028 138.083 184.028 137.795 184.195L132.947 186.995C132.65 187.171 132.64 187.449 132.938 187.616L137.767 190.417C138.055 190.584 138.538 190.584 138.835 190.417L143.683 187.616V187.607ZM142.466 189.536C142.178 189.703 142.178 189.981 142.466 190.148L147.296 192.948C147.583 193.115 148.066 193.115 148.354 192.948L153.221 190.148C153.509 189.981 153.509 189.703 153.221 189.536L148.391 186.735C148.104 186.568 147.621 186.568 147.333 186.735L142.466 189.536ZM174.015 193.607C174.312 193.783 174.786 193.773 175.074 193.607L179.94 190.806C180.228 190.639 180.247 190.37 179.94 190.194L175.12 187.394C174.823 187.218 174.349 187.227 174.061 187.394L169.195 190.194C168.907 190.361 168.888 190.63 169.195 190.806L174.015 193.607ZM136.699 191.631C136.987 191.465 136.987 191.186 136.699 191.019L131.869 188.219C131.582 188.052 131.099 188.052 130.811 188.219L125.944 191.019C125.656 191.186 125.656 191.465 125.944 191.631L130.774 194.432C131.061 194.599 131.544 194.599 131.832 194.432L136.699 191.631ZM159.74 188.21C159.453 188.043 158.97 188.043 158.672 188.21L153.815 191.01C153.518 191.186 153.527 191.455 153.815 191.622L158.645 194.423C158.932 194.589 159.406 194.599 159.703 194.423L164.561 191.622C164.858 191.446 164.867 191.168 164.57 191.001L159.74 188.2V188.21ZM135.473 193.56C135.185 193.727 135.185 194.005 135.473 194.172L140.302 196.973C140.59 197.139 141.073 197.139 141.361 196.973L146.228 194.172C146.515 194.005 146.515 193.727 146.228 193.56L141.398 190.76C141.11 190.593 140.627 190.593 140.339 190.76L135.473 193.56ZM191.141 193.607C190.843 193.783 190.853 194.052 191.141 194.219L195.97 197.019C196.258 197.186 196.732 197.195 197.029 197.019L203.307 193.403C203.595 193.236 203.595 192.957 203.307 192.791L198.478 189.99C198.19 189.823 197.707 189.823 197.419 189.99L191.141 193.607ZM152.747 192.253C152.459 192.086 151.976 192.086 151.688 192.253L146.831 195.053C146.534 195.229 146.525 195.507 146.822 195.674L151.651 198.475C151.939 198.642 152.422 198.642 152.719 198.475L157.577 195.674C157.864 195.507 157.864 195.229 157.577 195.062L152.747 192.262V192.253ZM183.451 196.824C183.739 196.657 183.739 196.379 183.451 196.203L178.631 193.403C178.334 193.226 177.86 193.236 177.572 193.403L172.705 196.203C172.418 196.37 172.399 196.639 172.705 196.815L177.526 199.615C177.823 199.791 178.306 199.791 178.594 199.615L183.46 196.815L183.451 196.824ZM128.489 197.594C128.201 197.761 128.201 198.039 128.489 198.206L133.318 201.006C133.606 201.173 134.089 201.173 134.377 201.006L139.244 198.206C139.531 198.039 139.531 197.761 139.244 197.594L134.414 194.793C134.126 194.627 133.643 194.627 133.355 194.793L128.489 197.594ZM122.722 199.699C123.009 199.532 123.009 199.254 122.722 199.087L117.892 196.286C117.604 196.119 117.121 196.119 116.833 196.286L111.967 199.087C111.679 199.254 111.679 199.532 111.967 199.699L116.796 202.499C117.084 202.666 117.567 202.666 117.855 202.499L122.722 199.699ZM145.754 196.286C145.466 196.119 144.983 196.119 144.695 196.286L139.829 199.087C139.541 199.254 139.541 199.532 139.829 199.699L144.658 202.499C144.946 202.666 145.429 202.666 145.717 202.499L150.583 199.699C150.871 199.532 150.871 199.254 150.583 199.087L145.754 196.286ZM127.384 205.04L132.232 202.239C132.529 202.063 132.538 201.785 132.241 201.618L127.412 198.818C127.124 198.651 126.641 198.651 126.344 198.818L121.496 201.618C121.208 201.785 121.208 202.063 121.496 202.23L126.325 205.031C126.613 205.197 127.096 205.197 127.384 205.031V205.04ZM115.719 203.732C116.016 203.556 116.025 203.278 115.728 203.111L110.899 200.311C110.611 200.144 110.128 200.144 109.831 200.311L104.974 203.111C104.676 203.287 104.686 203.556 104.974 203.723L109.803 206.524C110.091 206.69 110.565 206.7 110.862 206.524L115.719 203.723V203.732ZM138.761 200.311C138.473 200.144 137.99 200.144 137.702 200.311L132.835 203.111C132.547 203.278 132.547 203.556 132.835 203.723L137.665 206.524C137.953 206.69 138.436 206.69 138.723 206.524L143.59 203.723C143.878 203.556 143.878 203.278 143.59 203.111L138.761 200.311ZM169.464 204.882C169.752 204.715 169.752 204.437 169.464 204.261L164.644 201.461C164.347 201.284 163.873 201.294 163.585 201.461L158.719 204.261C158.431 204.428 158.412 204.697 158.719 204.873L163.539 207.673C163.836 207.85 164.319 207.85 164.607 207.673L169.474 204.873L169.464 204.882ZM114.502 205.652C114.205 205.828 114.214 206.097 114.502 206.264L119.332 209.064C119.62 209.231 120.093 209.24 120.39 209.064L125.248 206.264C125.545 206.088 125.536 205.819 125.248 205.652L120.418 202.851C120.13 202.685 119.657 202.675 119.36 202.851L114.502 205.652ZM130.671 210.557C130.959 210.724 131.442 210.724 131.73 210.557L136.597 207.757C136.885 207.59 136.885 207.312 136.597 207.145L131.767 204.344C131.479 204.177 130.996 204.177 130.709 204.344L125.842 207.145C125.554 207.312 125.554 207.59 125.842 207.757L130.671 210.557ZM124.774 208.369C124.486 208.202 124.003 208.202 123.706 208.369L118.849 211.169C118.552 211.345 118.561 211.614 118.849 211.781L123.678 214.582C123.966 214.748 124.44 214.758 124.737 214.582L129.594 211.781C129.891 211.605 129.901 211.327 129.603 211.16L124.774 208.36V208.369ZM155.468 212.95C155.766 212.773 155.756 212.504 155.468 212.328L150.648 209.528C150.351 209.352 149.887 209.352 149.59 209.528L144.732 212.328C144.435 212.504 144.417 212.773 144.723 212.95L149.543 215.75C149.84 215.926 150.323 215.926 150.62 215.75L155.478 212.95H155.468ZM86.5756 213.719C86.2877 213.886 86.2877 214.164 86.5756 214.331L91.405 217.132C91.6929 217.298 92.1758 217.298 92.4637 217.132L101.732 211.79C102.02 211.624 102.02 211.345 101.732 211.178L96.903 208.378C96.6151 208.211 96.1322 208.211 95.8443 208.378L86.5756 213.719ZM116.676 218.624C116.963 218.791 117.446 218.791 117.744 218.624L122.601 215.824C122.889 215.657 122.889 215.379 122.601 215.212L117.771 212.412C117.484 212.245 117.001 212.245 116.713 212.412L111.865 215.212C111.568 215.388 111.558 215.666 111.855 215.833L116.685 218.634L116.676 218.624ZM150.685 216.928C150.388 217.104 150.379 217.382 150.676 217.549L155.506 220.349C155.793 220.516 156.276 220.516 156.574 220.349L194.874 198.271C195.162 198.104 195.162 197.826 194.874 197.659L190.045 194.858C189.757 194.691 189.274 194.691 188.986 194.858L150.685 216.937V216.928ZM93.5225 217.744C93.2346 217.91 93.2346 218.189 93.5225 218.356L98.3518 221.156C98.6397 221.323 99.1227 221.323 99.4106 221.156L104.277 218.356C104.565 218.189 104.565 217.91 104.277 217.744L99.4477 214.943C99.1598 214.776 98.6769 214.776 98.389 214.943L93.5225 217.744ZM125.071 221.814C125.368 221.991 125.842 221.981 126.13 221.814L130.978 219.014C131.275 218.838 131.294 218.569 130.987 218.393L126.167 215.592C125.87 215.416 125.396 215.425 125.099 215.592L120.251 218.393C119.963 218.56 119.945 218.828 120.251 219.005L125.071 221.805V221.814ZM141.491 220.998C141.779 220.831 141.779 220.553 141.491 220.377L136.671 217.577C136.374 217.4 135.9 217.41 135.612 217.577L130.746 220.377C130.458 220.544 130.439 220.813 130.746 220.989L135.566 223.789C135.863 223.966 136.346 223.966 136.634 223.789L141.5 220.989L141.491 220.998ZM100.46 221.768C100.172 221.935 100.172 222.213 100.46 222.38L105.289 225.18C105.577 225.347 106.06 225.347 106.348 225.18L115.608 219.839C115.895 219.672 115.895 219.394 115.608 219.227L110.778 216.427C110.49 216.26 110.007 216.26 109.719 216.427L100.451 221.768H100.46ZM142.271 221.768C141.974 221.944 141.983 222.213 142.271 222.38L147.101 225.18C147.388 225.347 147.862 225.357 148.159 225.18L154.437 221.564C154.725 221.397 154.725 221.119 154.437 220.952L149.608 218.152C149.32 217.985 148.837 217.985 148.549 218.152L142.271 221.768ZM114.354 229.826C114.066 229.993 114.047 230.262 114.354 230.438L119.174 233.238C119.471 233.415 119.954 233.415 120.242 233.238L134.498 225.023C134.786 224.856 134.786 224.578 134.498 224.401L129.678 221.601C129.38 221.425 128.907 221.434 128.619 221.601L114.363 229.817L114.354 229.826ZM128.285 229.826C127.997 229.993 127.997 230.271 128.285 230.438L133.114 233.238C133.402 233.405 133.885 233.405 134.173 233.238L139.039 230.438C139.327 230.271 139.327 229.993 139.039 229.826L134.21 227.026C133.922 226.859 133.439 226.859 133.151 227.026L128.285 229.826ZM206.53 159.399C206.817 159.232 206.817 158.954 206.53 158.787L201.7 155.987C201.412 155.82 200.929 155.82 200.641 155.987L191.382 161.328C191.085 161.504 191.094 161.773 191.382 161.94L196.211 164.74C196.499 164.907 196.973 164.917 197.27 164.74L206.539 159.399H206.53ZM178.612 167.457C178.9 167.29 178.9 167.012 178.612 166.845L173.783 164.045C173.495 163.878 173.012 163.878 172.724 164.045L167.858 166.845C167.57 167.012 167.57 167.29 167.858 167.457L172.687 170.258C172.975 170.425 173.458 170.425 173.746 170.258L178.612 167.457ZM183.274 172.798L188.141 169.998C188.429 169.831 188.429 169.553 188.141 169.386L183.311 166.586C183.024 166.419 182.541 166.419 182.253 166.586L177.386 169.386C177.098 169.553 177.098 169.831 177.386 169.998L182.216 172.798C182.503 172.965 182.986 172.965 183.274 172.798ZM220.414 167.448C220.702 167.281 220.72 167.012 220.414 166.836L215.594 164.036C215.297 163.859 214.823 163.869 214.535 164.036L204.115 170.044C203.827 170.211 203.808 170.48 204.115 170.656L208.935 173.457C209.232 173.633 209.706 173.624 209.994 173.457L220.414 167.448ZM193.574 174.282C193.862 174.449 194.335 174.458 194.633 174.282L199.481 171.482C199.778 171.305 199.768 171.037 199.481 170.87L194.651 168.069C194.363 167.902 193.89 167.893 193.592 168.069L188.745 170.87C188.447 171.046 188.457 171.315 188.745 171.482L193.574 174.282ZM207.876 174.681C208.164 174.514 208.183 174.245 207.876 174.069L203.056 171.268C202.759 171.092 202.285 171.101 201.997 171.268L197.131 174.069C196.843 174.236 196.824 174.505 197.131 174.681L201.951 177.481C202.248 177.657 202.722 177.648 203.01 177.481L207.876 174.681ZM207.625 176.053C207.338 176.22 207.319 176.489 207.625 176.665L212.427 179.447C212.715 179.614 213.198 179.614 213.486 179.447L227.342 171.463C227.63 171.296 227.63 171.018 227.342 170.851L222.541 168.069C222.244 167.893 221.77 167.902 221.482 168.069L207.625 176.053ZM200.874 178.714C201.171 178.538 201.18 178.279 200.874 178.102L196.054 175.302C195.756 175.126 195.292 175.126 194.995 175.302L190.138 178.102C189.84 178.279 189.831 178.538 190.138 178.714L194.958 181.515C195.255 181.691 195.719 181.691 196.016 181.515L200.864 178.714H200.874ZM214.619 180.115C214.322 180.291 214.331 180.56 214.619 180.727L216.049 181.561C216.346 181.737 216.82 181.737 217.117 181.561L222.922 178.214C223.209 178.047 223.209 177.769 222.922 177.592L221.491 176.758C221.203 176.591 220.72 176.591 220.433 176.758L214.628 180.105L214.619 180.115ZM209.91 186.624C209.613 186.8 209.622 187.069 209.91 187.236L211.34 188.071C211.638 188.247 212.111 188.247 212.408 188.071L218.213 184.723C218.501 184.556 218.501 184.278 218.213 184.102L216.783 183.267C216.495 183.1 216.012 183.1 215.724 183.267L209.919 186.615L209.91 186.624ZM225.931 177.407C225.633 177.583 225.643 177.852 225.931 178.019L227.361 178.854C227.658 179.03 228.132 179.03 228.429 178.854L234.233 175.506C234.521 175.339 234.521 175.061 234.233 174.885L232.803 174.05C232.515 173.883 232.032 173.883 231.744 174.05L225.94 177.398L225.931 177.407ZM211.359 180.68C211.647 180.513 211.647 180.235 211.359 180.068L206.557 177.286C206.26 177.11 205.787 177.12 205.499 177.286L200.632 180.087C200.344 180.254 200.326 180.523 200.632 180.699L205.434 183.481C205.722 183.648 206.205 183.648 206.492 183.481L211.359 180.68ZM193.89 182.748C194.178 182.581 194.196 182.312 193.89 182.136L189.07 179.336C188.772 179.16 188.299 179.169 188.011 179.336L183.154 182.136C182.856 182.312 182.838 182.581 183.144 182.757L187.964 185.558C188.262 185.734 188.735 185.725 189.032 185.558L193.89 182.757V182.748ZM150.658 183.583C150.955 183.406 150.964 183.128 150.667 182.961L145.837 180.161C145.55 179.994 145.067 179.994 144.769 180.161L139.912 182.961C139.615 183.138 139.624 183.406 139.912 183.573L144.742 186.374C145.029 186.541 145.503 186.55 145.8 186.374L150.658 183.573V183.583ZM198.478 187.533C198.775 187.709 199.258 187.709 199.546 187.533L204.236 184.825L204.375 184.714C204.663 184.547 204.663 184.269 204.375 184.102L199.573 181.32C199.276 181.144 198.803 181.153 198.515 181.32L193.648 184.12C193.36 184.287 193.342 184.556 193.648 184.732L198.468 187.533H198.478ZM166.715 184.195C166.427 184.028 165.944 184.028 165.656 184.195L160.79 186.995C160.502 187.162 160.502 187.44 160.79 187.607L165.619 190.407C165.907 190.574 166.39 190.574 166.678 190.407L171.545 187.607C171.832 187.44 171.832 187.162 171.545 186.995L166.715 184.195ZM191.484 191.567C191.781 191.743 192.255 191.743 192.552 191.567L197.4 188.766C197.697 188.59 197.707 188.312 197.4 188.145L192.58 185.344C192.283 185.168 191.809 185.178 191.512 185.344L186.664 188.145C186.367 188.321 186.358 188.581 186.664 188.757L191.484 191.557V191.567ZM199.536 188.766C199.239 188.942 199.248 189.211 199.536 189.378L204.366 192.179C204.654 192.345 205.127 192.355 205.424 192.179L210.235 189.406C210.532 189.23 210.542 188.952 210.244 188.785L205.415 185.984C205.127 185.817 204.644 185.817 204.347 185.984L199.536 188.757V188.766ZM190.416 192.8C190.713 192.624 190.704 192.355 190.416 192.179L185.596 189.378C185.299 189.202 184.835 189.202 184.537 189.378L179.68 192.179C179.383 192.355 179.364 192.624 179.671 192.8L184.491 195.6C184.788 195.776 185.271 195.776 185.568 195.6L190.426 192.8H190.416ZM167.003 197.64C167.3 197.816 167.774 197.807 168.062 197.64L172.928 194.84C173.216 194.673 173.235 194.404 172.928 194.228L168.108 191.427C167.811 191.251 167.337 191.261 167.05 191.427L162.183 194.228C161.895 194.395 161.877 194.664 162.183 194.84L167.003 197.64ZM129.687 195.665C129.975 195.498 129.975 195.22 129.687 195.053L124.858 192.253C124.57 192.086 124.087 192.086 123.799 192.253L118.932 195.053C118.644 195.22 118.644 195.498 118.932 195.665L123.762 198.465C124.05 198.632 124.533 198.632 124.82 198.465L129.687 195.665ZM160.01 201.665C160.307 201.841 160.781 201.831 161.069 201.665L165.916 198.864C166.214 198.688 166.232 198.419 165.926 198.243L161.106 195.443C160.809 195.266 160.335 195.276 160.038 195.443L155.19 198.243C154.902 198.41 154.883 198.679 155.19 198.855L160.01 201.655V201.665ZM176.43 200.849C176.718 200.682 176.718 200.403 176.43 200.227L171.61 197.427C171.312 197.251 170.839 197.26 170.551 197.427L165.684 200.227C165.396 200.394 165.378 200.663 165.684 200.839L170.504 203.64C170.802 203.816 171.285 203.816 171.572 203.64L176.439 200.839L176.43 200.849ZM153.007 205.698C153.304 205.874 153.778 205.865 154.075 205.698L158.923 202.898C159.22 202.722 159.23 202.462 158.923 202.286L154.103 199.485C153.806 199.309 153.342 199.309 153.044 199.485L148.196 202.286C147.899 202.462 147.881 202.731 148.187 202.907L153.007 205.707V205.698ZM146.023 209.723C146.32 209.899 146.794 209.89 147.082 209.723L151.948 206.922C152.236 206.755 152.255 206.486 151.948 206.31L147.128 203.51C146.831 203.334 146.358 203.343 146.07 203.51L141.203 206.31C140.915 206.477 140.897 206.746 141.203 206.922L146.023 209.723ZM108.707 207.748C108.995 207.581 108.995 207.302 108.707 207.136L103.878 204.335C103.59 204.168 103.107 204.168 102.819 204.335L97.971 207.136C97.6739 207.312 97.6646 207.59 97.9618 207.757L102.791 210.557C103.079 210.724 103.562 210.724 103.859 210.557L108.707 207.757V207.748ZM162.443 208.907C162.74 208.73 162.75 208.452 162.443 208.285L157.623 205.485C157.326 205.309 156.852 205.318 156.555 205.485L151.698 208.285C151.401 208.462 151.391 208.721 151.698 208.897L156.518 211.698C156.815 211.874 157.289 211.874 157.586 211.698L162.434 208.897L162.443 208.907ZM113.379 213.089L118.227 210.288C118.514 210.121 118.514 209.843 118.227 209.676L113.397 206.876C113.109 206.709 112.626 206.709 112.338 206.876L107.481 209.676C107.184 209.852 107.175 210.131 107.472 210.298L112.301 213.098C112.589 213.265 113.072 213.265 113.369 213.098L113.379 213.089ZM139.03 213.756C139.327 213.932 139.801 213.923 140.089 213.756L144.955 210.956C145.243 210.789 145.262 210.52 144.955 210.344L140.135 207.544C139.838 207.367 139.364 207.377 139.076 207.544L134.21 210.344C133.922 210.511 133.903 210.78 134.21 210.956L139.03 213.756ZM105.327 217.122C105.614 217.289 106.097 217.289 106.385 217.122L111.252 214.322C111.54 214.155 111.54 213.877 111.252 213.71L106.422 210.91C106.135 210.743 105.652 210.743 105.364 210.91L100.497 213.71C100.209 213.877 100.209 214.155 100.497 214.322L105.327 217.122ZM137.971 214.98C138.259 214.813 138.278 214.544 137.971 214.368L133.151 211.568C132.854 211.392 132.38 211.401 132.092 211.568L127.226 214.368C126.938 214.535 126.919 214.804 127.226 214.98L132.046 217.781C132.343 217.957 132.817 217.948 133.105 217.781L137.971 214.98ZM142.541 219.765C142.838 219.941 143.321 219.941 143.609 219.765L148.475 216.965C148.763 216.798 148.763 216.52 148.475 216.343L143.655 213.543C143.358 213.367 142.884 213.376 142.596 213.543L137.73 216.343C137.442 216.51 137.423 216.779 137.73 216.955L142.55 219.756L142.541 219.765ZM107.407 225.802C107.119 225.969 107.1 226.237 107.407 226.414L112.227 229.214C112.524 229.39 112.998 229.381 113.286 229.214L123.985 223.048C124.282 222.871 124.291 222.612 123.985 222.436L119.165 219.635C118.867 219.459 118.403 219.459 118.106 219.635L107.407 225.802ZM135.278 225.802C134.981 225.978 134.971 226.256 135.269 226.423L140.098 229.223C140.386 229.39 140.869 229.39 141.166 229.223L146.023 226.423C146.311 226.256 146.311 225.978 146.023 225.811L141.194 223.011C140.906 222.844 140.423 222.844 140.135 223.011L135.287 225.811L135.278 225.802ZM155.06 224.281C154.447 224.633 154.447 225.208 155.06 225.561L169.576 233.98C170.179 234.333 171.182 234.333 171.795 233.98L197.855 219.005C198.478 218.643 198.468 218.077 197.855 217.725L183.339 209.305C182.736 208.953 181.742 208.944 181.12 209.305L155.06 224.281ZM121.291 233.86C121.003 234.027 121.003 234.305 121.291 234.472L126.121 237.272C126.409 237.439 126.892 237.439 127.179 237.272L132.046 234.472C132.334 234.305 132.334 234.027 132.046 233.86L127.217 231.059C126.929 230.892 126.446 230.892 126.158 231.059L121.291 233.86Z" fill="#193164"/>
<path d="M191.781 62.2111C193.63 61.1448 195.125 61.9979 195.134 64.1213L195.366 145.305L73.9821 215.277L73.7499 134.094C73.7499 131.98 75.2359 129.402 77.0748 128.335L191.781 62.2111Z" fill="#1A6CBE"/>
<path d="M266.395 186.587C266.395 187.051 266.089 187.524 265.466 187.876L148.531 255.28C147.296 255.994 145.308 255.985 144.082 255.28L74.8923 215.138C74.818 215.092 74.7622 215.045 74.7065 214.999C74.6322 214.943 74.5486 214.888 74.4836 214.832C74.3815 214.748 74.3072 214.656 74.2329 214.554C74.2236 214.535 74.2143 214.517 74.1957 214.507C74.1307 214.415 74.0843 214.313 74.0471 214.22C74.0471 214.211 74.0471 214.201 74.0378 214.183C74.0007 214.081 73.9821 213.97 73.9821 213.858L74.0007 218.968C74.0007 218.968 74.0007 218.986 74.0007 218.995C74.0007 219.051 74.0007 219.116 74.0193 219.172C74.0193 219.209 74.0378 219.246 74.0564 219.292C74.0564 219.301 74.0564 219.311 74.0657 219.329C74.0657 219.329 74.0657 219.348 74.0657 219.357C74.0843 219.413 74.1121 219.478 74.1493 219.533C74.1679 219.561 74.1864 219.589 74.205 219.617C74.2143 219.635 74.2236 219.654 74.2422 219.663C74.2514 219.682 74.2607 219.7 74.2793 219.709C74.335 219.784 74.4 219.848 74.4743 219.923C74.4743 219.923 74.4929 219.932 74.4929 219.941C74.5579 219.997 74.6415 220.052 74.7158 220.108C74.7715 220.145 74.8087 220.182 74.8644 220.219C74.8737 220.219 74.8923 220.238 74.9016 220.238L144.091 260.38C145.317 261.094 147.305 261.094 148.54 260.38L265.476 192.976C266.098 192.624 266.404 192.151 266.395 191.687L266.377 186.578L266.395 186.587Z" fill="#1A6CBE"/>
<path d="M189.58 69.8798L189.785 142.115L79.5266 205.67L79.3223 133.435L189.58 69.8798Z" fill="#102465"/>
<path d="M189.58 72.1701V69.8798L79.3223 133.435V135.726L189.58 72.1701Z" fill="#00154F"/>
<path d="M192.515 61.8866C192.701 61.831 192.887 61.7846 193.063 61.7661C193.082 61.7661 193.1 61.7661 193.11 61.7661C193.295 61.7475 193.481 61.7661 193.648 61.7939C193.648 61.7939 193.667 61.7939 193.676 61.7939C193.853 61.831 194.01 61.8866 194.159 61.9793L191.466 60.3751C191.466 60.3751 191.456 60.3751 191.447 60.3659C191.391 60.338 191.336 60.3102 191.28 60.2824C191.224 60.2546 191.169 60.2361 191.104 60.2175C191.066 60.2082 191.02 60.199 190.983 60.1897C190.983 60.1897 190.964 60.1897 190.955 60.1897C190.946 60.1897 190.927 60.1897 190.918 60.1897C190.853 60.1804 190.788 60.1711 190.713 60.1619C190.639 60.1619 190.565 60.1619 190.491 60.1619C190.463 60.1619 190.444 60.1619 190.416 60.1619C190.398 60.1619 190.379 60.1619 190.37 60.1619C190.323 60.1619 190.286 60.1619 190.24 60.1711C190.147 60.1897 190.045 60.2082 189.943 60.236C189.905 60.2453 189.859 60.2639 189.813 60.2824C189.775 60.2917 189.738 60.3102 189.692 60.3195C189.645 60.3381 189.59 60.3473 189.543 60.3659C189.395 60.4308 189.237 60.505 189.079 60.5977L74.3722 126.722C74.1586 126.842 73.945 126.991 73.7407 127.158C73.6756 127.213 73.6106 127.269 73.5456 127.325C73.4435 127.408 73.3413 127.492 73.2484 127.584C73.202 127.631 73.1648 127.677 73.1184 127.714C73.0813 127.751 73.0441 127.788 73.007 127.835C72.9605 127.881 72.9234 127.927 72.8769 127.974C72.7841 128.076 72.6912 128.187 72.6076 128.308C72.5797 128.345 72.5519 128.391 72.5147 128.428C72.4962 128.447 72.4869 128.465 72.4683 128.493C72.4404 128.53 72.4126 128.567 72.3847 128.614C72.3197 128.706 72.2547 128.808 72.1897 128.901C72.134 128.994 72.0689 129.086 72.0132 129.179C72.0132 129.179 72.0132 129.198 72.0039 129.207C72.0039 129.207 72.0039 129.226 71.9946 129.226C71.9482 129.3 71.9018 129.383 71.8646 129.457C71.8182 129.55 71.7625 129.643 71.7253 129.745C71.6789 129.828 71.6417 129.921 71.6046 130.004C71.6046 130.004 71.6046 130.004 71.6046 130.014C71.6046 130.014 71.6046 130.023 71.6046 130.032C71.5581 130.134 71.521 130.227 71.4839 130.329C71.4467 130.431 71.4096 130.542 71.3724 130.644C71.3538 130.7 71.3445 130.746 71.326 130.802C71.326 130.82 71.3167 130.848 71.3074 130.867C71.2981 130.904 71.2795 130.941 71.2702 130.978C71.2331 131.108 71.2052 131.238 71.1774 131.358C71.1588 131.432 71.1495 131.516 71.1402 131.59C71.1402 131.627 71.1217 131.674 71.1217 131.711C71.1217 131.748 71.1031 131.785 71.1031 131.822C71.0752 132.044 71.0566 132.258 71.0566 132.471L71.2795 211.429C71.2795 212.81 72.0225 214.09 73.2206 214.776L73.9821 215.258L73.7499 134.075C73.7499 133.825 73.7685 133.565 73.815 133.315C73.815 133.278 73.8242 133.231 73.8335 133.194C73.8707 132.953 73.9264 132.712 74.0007 132.462C74.0007 132.443 74.01 132.415 74.0193 132.397C74.1029 132.137 74.1957 131.868 74.3072 131.609C74.3072 131.609 74.3072 131.609 74.3072 131.599C74.4279 131.33 74.5579 131.071 74.6972 130.82C74.6972 130.82 74.6972 130.802 74.7065 130.802C74.8458 130.552 75.0037 130.32 75.1709 130.088C75.1895 130.069 75.1987 130.051 75.2173 130.023C75.3752 129.819 75.5331 129.624 75.7095 129.439C75.7467 129.402 75.7838 129.355 75.821 129.318C75.9603 129.179 76.0996 129.049 76.2389 128.929C76.3039 128.873 76.3689 128.808 76.434 128.762C76.6383 128.604 76.8426 128.456 77.0655 128.326L191.772 62.2019C191.986 62.0813 192.19 61.9886 192.385 61.9144C192.422 61.8959 192.459 61.8866 192.506 61.8773L192.515 61.8866Z" fill="url(#paint9_linear_186_229)"/>
<path d="M253.003 217.289C249.205 215.101 243.056 215.091 239.276 217.28C235.478 219.477 235.515 223.038 239.323 225.227C243.121 227.415 249.26 227.415 253.049 225.217C256.829 223.029 256.811 219.477 253.003 217.289Z" fill="#1A9BDB"/>
<path d="M242.657 223.817C242.657 223.817 239.221 221.582 239.128 221.045C239.035 220.507 239.871 219.913 240.447 219.941C241.022 219.96 243.456 220.164 243.456 220.164L244.236 221.045C244.236 221.045 245.629 224.364 242.657 223.817Z" fill="#103450"/>
<path d="M250.17 221.007C250.17 221.007 246.734 218.773 246.641 218.235C246.548 217.697 247.384 217.104 247.96 217.131C248.536 217.15 250.969 217.354 250.969 217.354L251.749 218.235C251.749 218.235 253.142 221.555 250.17 221.007Z" fill="#103450"/>
<path d="M241.524 192.614L241.422 220.859C241.422 220.859 242.991 221.814 244.802 220.785C244.802 220.785 248.006 196.388 248.062 195.804C248.109 195.266 248.517 218.077 248.517 218.077C248.517 218.077 250.505 219.218 252.009 217.669L253.792 190.648L241.533 192.614H241.524Z" fill="#103450"/>
<path d="M252.074 182.275L252.269 187.245C252.269 187.245 256.17 185.187 256.077 182.173C256.059 181.496 254.768 177.175 254.48 176.081C253.17 176.795 253.087 181.218 252.084 182.275H252.074Z" fill="#FFC6A0"/>
<path d="M244.338 171.5C244.338 171.5 242.889 171.815 241.013 173.345L241.515 192.605C241.515 192.605 243.948 194.385 248.926 193.087C252.984 192.03 254.043 190.324 254.043 190.324C254.043 190.324 253.95 181.394 253.57 177.49C253.189 173.586 252.065 170.591 252.065 170.591C251.183 170.322 249.232 170.434 249.232 170.434L244.329 171.5H244.338Z" fill="#FDF7FB"/>
<path d="M248.833 170.332L248.944 166.567C248.944 166.567 249.892 166.493 249.734 165.454C249.567 164.416 248.601 165.102 248.424 165.408C248.424 165.408 248.201 161.838 246.307 161.495C244.412 161.152 243.623 161.43 243.576 162.348C243.53 163.266 243.465 166.493 243.576 167.689C243.688 168.885 243.576 169.506 245.304 169.46L245.452 170.712C245.452 170.712 246.242 171.444 248.666 170.851L248.824 170.332H248.833Z" fill="#FFC6A0"/>
<path d="M244.338 171.5C244.347 170.768 244.468 170.369 246.177 170.174C247.886 169.979 249.279 169.525 249.455 170.174C249.632 170.823 249.288 171.231 247.57 171.38C245.861 171.528 244.338 171.509 244.338 171.509V171.5Z" fill="white"/>
<path d="M246.576 165.566C246.66 165.278 246.585 164.889 246.251 164.805C245.991 164.75 245.777 164.87 245.61 165.074C245.322 165.417 245.137 165.983 244.988 166.354C244.812 166.205 244.635 166.057 244.449 165.918C244.449 165.807 244.468 165.695 244.468 165.575C244.487 165.297 244.505 165.009 244.44 164.74C244.301 164.165 243.697 164.073 243.409 163.646C243.019 163.071 243.186 162.246 243.558 161.69C243.948 161.115 244.57 160.725 245.239 160.512C247.496 159.77 250.876 161.43 250.217 164.175C249.836 165.751 249.288 167.281 248.879 168.839C248.824 169.043 248.359 169.126 248.155 169.061C247.951 168.996 247.784 168.857 247.626 168.718C246.883 168.041 246.27 167.235 245.815 166.344C245.861 166.437 246.548 165.677 246.586 165.556L246.576 165.566Z" fill="#103450"/>
<path d="M241.097 193.495C241.143 193.727 241.32 193.968 241.561 193.977C241.84 193.977 242.016 193.699 242.137 193.449C242.211 193.291 242.295 193.134 242.369 192.976C242.434 192.846 242.499 192.707 242.481 192.568C242.462 192.429 242.378 192.308 242.369 192.169C242.36 191.9 242.648 191.715 242.722 191.464C242.815 191.158 242.583 190.862 242.369 190.63C242.22 190.472 242.081 190.305 241.895 190.185C241.171 189.721 240.512 190.546 240.651 191.26C240.716 191.576 240.93 191.863 241.022 192.178C241.152 192.633 241.022 193.059 241.097 193.504V193.495Z" fill="#FFC6A0"/>
<path d="M241.022 192.012C241.022 192.012 236.815 185.576 236.704 184.13C236.583 182.692 240.177 175.135 240.177 175.135L242.945 178.214L239.824 183.814L241.589 190.055L241.022 192.002V192.012Z" fill="#FFC6A0"/>
<path d="M242.063 181.635C242.397 180.791 242.666 179.966 242.741 179.289C243.093 176.109 241.013 173.355 241.013 173.355C240.224 173.707 238.961 176.331 237.837 179.243C239.211 180.105 240.623 180.893 242.063 181.635Z" fill="#FDF7FB"/>
<path d="M255.278 176.952C254.21 173.865 252.808 170.842 252.084 170.591L252.39 178.631C253.319 178.028 254.312 177.5 255.278 176.952Z" fill="#FDF7FB"/>
<path d="M93.2253 135.281C91.4235 136.319 89.9655 138.841 89.9655 140.918C89.9655 142.986 91.4421 143.83 93.2438 142.792C95.0456 141.753 96.513 139.221 96.513 137.144C96.513 135.077 95.0363 134.242 93.2253 135.281Z" fill="#00EDF9"/>
<path d="M132.427 113.666L100.051 132.332C99.6706 132.554 99.3549 133.092 99.3549 133.537V133.667C99.3549 134.112 99.6706 134.288 100.061 134.066L132.436 115.4C132.826 115.177 133.133 114.639 133.133 114.194V114.065C133.133 113.619 132.826 113.443 132.427 113.666Z" fill="#FDF7FB"/>
<path d="M108.076 132.044L100.061 136.662C99.6799 136.885 99.3641 137.423 99.3641 137.868V137.988C99.3641 138.433 99.6799 138.619 100.07 138.396L108.085 133.778C108.466 133.556 108.781 133.018 108.781 132.564V132.443C108.781 131.998 108.466 131.822 108.076 132.044Z" fill="#FDF7FB"/>
<path d="M132.39 118.024L111.057 130.32C110.648 130.561 110.305 131.145 110.305 131.618C110.305 132.091 110.648 132.285 111.066 132.054L132.399 119.758C132.807 119.517 133.151 118.933 133.142 118.46C133.142 117.978 132.807 117.783 132.39 118.024Z" fill="#FDF7FB"/>
<path d="M104.444 138.461L100.135 140.946C99.717 141.187 99.3827 141.772 99.3827 142.244C99.3827 142.727 99.717 142.921 100.144 142.68L104.454 140.195C104.862 139.954 105.206 139.379 105.196 138.897C105.196 138.424 104.862 138.22 104.444 138.461Z" fill="#FDF7FB"/>
<path d="M93.2717 152.296C91.47 153.335 90.0119 155.857 90.0119 157.934C90.0119 160.002 91.4886 160.836 93.2903 159.798C95.092 158.759 96.5594 156.228 96.5594 154.16C96.5594 152.092 95.0827 151.258 93.2717 152.296Z" fill="#00EDF9"/>
<path d="M132.473 130.691L100.098 149.357C99.7171 149.579 99.4013 150.117 99.4013 150.562V150.692C99.4013 151.137 99.7171 151.313 100.107 151.091L132.482 132.425C132.873 132.202 133.179 131.664 133.179 131.219V131.089C133.179 130.644 132.873 130.468 132.473 130.691Z" fill="#FDF7FB"/>
<path d="M108.122 149.06L100.107 153.678C99.7263 153.9 99.4106 154.438 99.4106 154.883V155.004C99.4106 155.449 99.7264 155.625 100.116 155.403L108.131 150.785C108.512 150.562 108.828 150.024 108.828 149.579V149.459C108.828 149.014 108.512 148.837 108.122 149.06Z" fill="#FDF7FB"/>
<path d="M132.436 135.049L111.103 147.345C110.695 147.586 110.351 148.17 110.351 148.643C110.351 149.125 110.695 149.31 111.113 149.079L132.445 136.783C132.854 136.542 133.198 135.967 133.188 135.485C133.188 135.012 132.854 134.817 132.436 135.058" fill="#FDF7FB"/>
<path d="M104.491 155.486L100.181 157.971C99.7635 158.212 99.4291 158.796 99.4291 159.279C99.4291 159.761 99.7635 159.956 100.191 159.714L104.5 157.229C104.909 156.988 105.252 156.413 105.243 155.931C105.243 155.458 104.909 155.254 104.491 155.495" fill="#FDF7FB"/>
<path d="M93.3274 169.321C91.5257 170.36 90.0676 172.882 90.0676 174.959C90.0676 177.027 91.5443 177.861 93.346 176.823C95.1477 175.784 96.6151 173.253 96.6151 171.185C96.6151 169.117 95.1385 168.282 93.3274 169.321Z" fill="#00EDF9"/>
<path d="M132.529 147.715L100.154 166.382C99.7728 166.604 99.457 167.142 99.457 167.587V167.717C99.457 168.162 99.7728 168.338 100.163 168.116L132.538 149.449C132.928 149.227 133.235 148.689 133.235 148.244V148.114C133.235 147.669 132.928 147.493 132.529 147.715Z" fill="#FDF7FB"/>
<path d="M108.178 166.076L100.163 170.693C99.7821 170.916 99.4663 171.454 99.4663 171.908V172.029C99.4663 172.474 99.7821 172.65 100.172 172.427L108.187 167.81C108.568 167.587 108.884 167.049 108.884 166.604V166.484C108.884 166.029 108.568 165.853 108.178 166.076Z" fill="#FDF7FB"/>
<path d="M132.492 152.064L111.159 164.36C110.75 164.601 110.407 165.185 110.407 165.658C110.407 166.14 110.75 166.326 111.168 166.094L132.501 153.798C132.91 153.557 133.253 152.982 133.244 152.5C133.244 152.027 132.91 151.823 132.492 152.064Z" fill="#FDF7FB"/>
<path d="M104.537 172.511L100.228 174.996C99.8099 175.237 99.4756 175.821 99.4756 176.303C99.4756 176.786 99.8099 176.98 100.237 176.739L104.546 174.254C104.955 174.013 105.299 173.438 105.289 172.956C105.289 172.474 104.955 172.279 104.537 172.52" fill="#FDF7FB"/>
<path d="M162.016 96.6131L162.034 103.577C169.371 99.3486 175.343 102.752 175.371 111.162L181.435 107.666C181.398 95.4076 172.705 90.4467 162.016 96.6131Z" fill="#00EDF9"/>
<path d="M162.016 96.6132C151.326 102.78 142.689 117.718 142.717 129.986C142.736 136.124 144.909 140.427 148.429 142.43L152.701 135.03C150.286 133.667 148.791 130.709 148.782 126.49C148.754 118.08 154.688 107.815 162.025 103.577L162.007 96.6132" fill="#FDF7FB"/>
<path d="M181.435 107.666L175.371 111.162C175.399 119.582 169.464 129.847 162.127 134.075C158.45 136.189 155.134 136.393 152.719 135.021L148.447 142.421C151.958 144.414 156.806 144.118 162.155 141.03C172.845 134.863 181.482 119.925 181.454 107.657" fill="#FF20CE"/>
<path d="M132.928 164.759L97.711 185.057C97.3209 185.279 97.0145 185.817 97.0145 186.262V186.392C97.0145 186.837 97.3209 187.013 97.7203 186.791L132.938 166.493C133.328 166.27 133.643 165.723 133.643 165.278V165.148C133.643 164.703 133.328 164.527 132.938 164.75" fill="#FDF7FB"/>
<path d="M92.1573 188.256L90.8106 189.035C90.4298 189.258 90.1141 189.795 90.1141 190.24V190.37C90.1141 190.815 90.4298 190.992 90.8199 190.769L92.1666 189.99C92.5473 189.768 92.8631 189.23 92.8631 188.785V188.655C92.8631 188.21 92.5473 188.033 92.1573 188.256Z" fill="#FF20CE"/>
<path d="M179.764 137.756L144.547 158.055C144.157 158.277 143.841 158.824 143.841 159.269V159.399C143.841 159.844 144.157 160.02 144.547 159.798L179.764 139.5C180.154 139.277 180.46 138.739 180.46 138.294V138.164C180.46 137.719 180.154 137.543 179.755 137.766" fill="#FDF7FB"/>
<path d="M138.993 161.263L137.646 162.042C137.256 162.264 136.95 162.802 136.95 163.247V163.377C136.95 163.822 137.256 163.998 137.655 163.776L139.002 162.997C139.392 162.774 139.699 162.237 139.699 161.791V161.662C139.699 161.217 139.392 161.04 138.993 161.263Z" fill="#FF20CE"/>
<g style="mix-blend-mode:overlay" opacity="0.6">
<path d="M93.2624 67.3019L97.7575 62.1926C97.7482 62.072 97.7296 61.9422 97.7296 61.8124C97.7296 60.1618 98.8905 58.1496 100.33 57.3244C101.77 56.4991 102.94 57.1667 102.94 58.808C102.94 60.4586 101.779 62.4708 100.339 63.296C99.6149 63.7133 98.9462 63.7504 98.4726 63.4629L93.9776 68.5722C93.9961 68.6928 94.0054 68.8226 94.0054 68.9524C94.0054 70.603 92.8445 72.6152 91.405 73.4405C91.1171 73.6074 90.8385 73.7094 90.5784 73.765L84.6253 86.4316C84.9225 86.7469 85.099 87.2291 85.099 87.8689C85.099 89.5195 83.9381 91.5317 82.4985 92.3569C81.059 93.1822 79.8888 92.5146 79.8888 90.8733C79.8888 90.3726 80.0003 89.8347 80.186 89.3062L74.6601 85.9309C74.3165 86.3111 73.9357 86.6449 73.5363 86.8767C73.137 87.1085 72.7562 87.2198 72.4126 87.2291L66.9238 96.9562C67.1189 97.2622 67.2303 97.6702 67.2303 98.171C67.2303 99.8215 66.0694 101.834 64.6299 102.659C63.1904 103.484 62.0202 102.817 62.0202 101.175C62.0202 99.5248 63.1811 97.5126 64.6206 96.6873C65.0292 96.4555 65.4007 96.3442 65.7444 96.335L71.2331 86.6078C71.0381 86.3018 70.9266 85.8938 70.9266 85.3931C70.9266 83.7425 72.0875 81.7303 73.5271 80.9051C74.9666 80.0798 76.1368 80.7474 76.1368 82.3887C76.1368 82.8894 76.0253 83.4272 75.8396 83.9465L81.3655 87.3218C81.7091 86.9324 82.0899 86.6078 82.4892 86.376C82.7772 86.2091 83.0558 86.1071 83.3158 86.0514L89.2689 73.3941C88.9717 73.0788 88.7953 72.5874 88.7953 71.9475C88.7953 70.3063 89.9562 68.2941 91.3957 67.4595C92.1201 67.0422 92.7888 67.0051 93.2624 67.2926M107.1 47.1521L57.7573 75.601C57.0886 75.9905 56.55 76.927 56.55 77.6967L56.6521 112.108C56.6521 112.878 57.2001 113.184 57.8688 112.803L107.212 84.3545C107.881 83.9651 108.429 83.0285 108.429 82.2589L108.326 47.8476C108.326 47.0779 107.778 46.7627 107.11 47.1521" fill="#00EDF9"/>
</g>
<path d="M100.321 57.3151C98.8812 58.1404 97.7203 60.1525 97.7203 61.8031C97.7203 61.9329 97.7296 62.0627 97.7482 62.1833L93.2531 67.2926C92.7795 67.0051 92.1201 67.0422 91.3864 67.4595C89.9469 68.2848 88.786 70.297 88.786 71.9475C88.786 72.5873 88.9624 73.0788 89.2596 73.3941L83.3065 86.0514C83.0465 86.1071 82.7678 86.2091 82.4799 86.376C82.0713 86.6078 81.6905 86.9323 81.3562 87.3218L75.8303 83.9465C76.016 83.418 76.1275 82.8894 76.1275 82.3887C76.1275 80.7381 74.948 80.0705 73.5178 80.905C72.0875 81.7396 70.9173 83.7425 70.9173 85.3931C70.9173 85.8938 71.0288 86.3018 71.2238 86.6078L65.735 96.3349C65.3914 96.3349 65.0106 96.4555 64.6113 96.6873C63.1718 97.5126 62.0109 99.5248 62.0109 101.175C62.0109 102.826 63.1903 103.494 64.6206 102.659C66.0601 101.834 67.221 99.8215 67.221 98.171C67.221 97.6702 67.1096 97.2622 66.9145 96.9562L72.4033 87.2291C72.7469 87.2198 73.1277 87.1085 73.527 86.8767C73.9357 86.6449 74.3165 86.3111 74.6508 85.9309L80.1767 89.3062C79.991 89.8347 79.8795 90.3725 79.8795 90.8733C79.8795 92.5238 81.059 93.1915 82.4892 92.3569C83.9288 91.5316 85.0897 89.5195 85.0897 87.8689C85.0897 87.2291 84.9039 86.7469 84.616 86.4316L90.5691 73.765C90.8292 73.7186 91.1078 73.6074 91.3957 73.4404C92.8352 72.6152 93.9961 70.603 93.9961 68.9524C93.9961 68.8226 93.9868 68.6928 93.9683 68.5722L98.4633 63.4629C98.9369 63.7411 99.5963 63.7133 100.33 63.296C101.77 62.4707 102.93 60.4585 102.93 58.808C102.93 57.1574 101.751 56.4898 100.321 57.3243" fill="#A5FFFF"/>
<path opacity="0.6" d="M39.9723 144.34C39.7587 144.461 39.5822 144.368 39.5822 144.118C39.5822 143.867 39.7587 143.571 39.9723 143.45L41.6161 142.504C41.8297 142.384 42.0062 142.476 42.0062 142.727C42.0062 142.977 41.8297 143.274 41.6161 143.394L39.9723 144.34ZM43.2692 142.439C43.0556 142.56 42.8792 142.467 42.8792 142.217C42.8792 141.966 43.0556 141.67 43.2692 141.549L44.9131 140.603C45.1267 140.483 45.3031 140.575 45.3031 140.826C45.3031 141.076 45.1267 141.373 44.9131 141.493L43.2692 142.439ZM39.963 141.215C39.7494 141.336 39.5729 141.243 39.5729 140.993C39.5729 140.742 39.7494 140.446 39.963 140.325L54.2282 132.1C54.4418 131.98 54.6182 132.072 54.6182 132.323C54.6182 132.573 54.4418 132.87 54.2282 132.99L39.963 141.215ZM39.963 138.09C39.7494 138.211 39.5729 138.118 39.5729 137.868C39.5729 137.617 39.7494 137.321 39.963 137.2L47.9686 132.582C48.1822 132.452 48.3586 132.554 48.3586 132.805C48.3586 133.055 48.1822 133.352 47.9686 133.482L39.963 138.1M49.6403 132.517C49.4267 132.638 49.2502 132.545 49.2502 132.295C49.2502 132.044 49.4267 131.748 49.6403 131.627L50.6433 131.052C50.8569 130.932 51.0334 131.024 51.0334 131.275C51.0334 131.525 50.8569 131.822 50.6433 131.942L49.6403 132.517ZM52.3893 130.932C52.1757 131.052 51.9992 130.96 51.9992 130.709C51.9992 130.459 52.1757 130.162 52.3893 130.042L58.9275 126.277C59.1411 126.156 59.3176 126.249 59.3176 126.499C59.3176 126.75 59.1411 127.046 58.9275 127.167L52.3893 130.932ZM39.9537 134.965C39.7401 135.086 39.5636 134.993 39.5636 134.743C39.5636 134.492 39.7401 134.196 39.9537 134.075L53.5595 126.23C53.7731 126.11 53.9496 126.203 53.9496 126.453C53.9496 126.703 53.7731 127 53.5595 127.121L39.9537 134.965ZM55.2591 126.138C55.0455 126.258 54.869 126.166 54.869 125.915C54.869 125.665 55.0455 125.368 55.2591 125.248L58.9089 123.143C59.1225 123.022 59.299 123.115 59.299 123.365C59.299 123.615 59.1225 123.912 58.9089 124.033L55.2591 126.138ZM34.9107 139.055C34.2792 139.416 33.7684 139.129 33.7684 138.406C33.7684 137.682 34.2792 136.801 34.9014 136.44C35.533 136.078 36.0438 136.366 36.0438 137.089C36.0438 137.812 35.533 138.693 34.9014 139.055M61.2122 118.877L32.0595 135.679C31.5673 135.967 31.1772 136.644 31.1772 137.209L31.2144 151.369C31.2144 151.925 31.6137 152.157 32.106 151.879L61.2586 135.077C61.7508 134.789 62.1409 134.112 62.1409 133.547L62.1038 119.387C62.1038 118.821 61.7044 118.599 61.2122 118.877Z" fill="#00EDF9"/>
<path d="M53.5502 126.23L39.9444 134.075C39.7308 134.196 39.5543 134.492 39.5543 134.743C39.5543 134.993 39.7308 135.086 39.9444 134.965L53.5502 127.121C53.7638 127 53.9403 126.694 53.9403 126.453C53.9403 126.203 53.7638 126.11 53.5502 126.23Z" fill="#A5FFFF"/>
<path d="M47.9593 132.582L39.9537 137.2C39.7401 137.321 39.5636 137.627 39.5636 137.868C39.5636 138.118 39.7401 138.211 39.9537 138.09L47.9593 133.473C48.1729 133.343 48.3493 133.046 48.3493 132.796C48.3493 132.545 48.1729 132.453 47.9593 132.573" fill="#A5FFFF"/>
<path d="M54.2282 132.1L39.963 140.325C39.7494 140.446 39.5729 140.742 39.5729 140.993C39.5729 141.243 39.7494 141.336 39.963 141.215L54.2282 132.99C54.4418 132.87 54.6183 132.564 54.6183 132.323C54.6183 132.072 54.4418 131.979 54.2282 132.1Z" fill="#A5FFFF"/>
<path d="M41.6161 142.504L39.9723 143.45C39.7587 143.57 39.5822 143.876 39.5822 144.118C39.5822 144.368 39.7587 144.461 39.9723 144.34L41.6161 143.394C41.8297 143.274 42.0062 142.968 42.0062 142.727C42.0062 142.476 41.8297 142.384 41.6161 142.504Z" fill="#A5FFFF"/>
<path d="M50.634 131.043L49.631 131.618C49.4174 131.738 49.2409 132.044 49.2409 132.286C49.2409 132.536 49.4174 132.629 49.631 132.508L50.634 131.933C50.8476 131.813 51.0241 131.507 51.0241 131.266C51.0241 131.015 50.8476 130.922 50.634 131.043Z" fill="#A5FFFF"/>
<path d="M58.9089 126.268L52.3707 130.032C52.1571 130.153 51.9807 130.459 51.9807 130.7C51.9807 130.95 52.1571 131.043 52.3707 130.922L58.9089 127.158C59.1225 127.037 59.299 126.731 59.299 126.49C59.299 126.24 59.1225 126.147 58.9089 126.268Z" fill="#A5FFFF"/>
<path d="M58.8996 123.143L55.2497 125.248C55.0361 125.368 54.8597 125.665 54.8597 125.915C54.8597 126.166 55.0361 126.258 55.2497 126.138L58.8996 124.033C59.1132 123.912 59.2897 123.606 59.2897 123.365C59.2897 123.115 59.1132 123.022 58.8996 123.143Z" fill="#A5FFFF"/>
<path d="M34.8921 136.44C34.2606 136.801 33.7498 137.682 33.7591 138.406C33.7591 139.129 34.2699 139.416 34.9014 139.055C35.533 138.693 36.0438 137.812 36.0438 137.089C36.0438 136.366 35.533 136.069 34.9014 136.44" fill="#A5FFFF"/>
<path d="M44.9131 140.603L43.2692 141.549C43.0556 141.67 42.8792 141.976 42.8792 142.217C42.8792 142.467 43.0556 142.56 43.2692 142.439L44.9131 141.493C45.1267 141.373 45.3031 141.067 45.3031 140.826C45.3031 140.575 45.1267 140.483 44.9131 140.603Z" fill="#A5FFFF"/>
<path d="M147.156 371.848V337.205L81.4955 299.316V333.959L147.156 371.848Z" fill="url(#paint10_linear_186_229)"/>
<path d="M81.6627 299.409L81.4955 299.502V333.959L111.512 316.638L81.6627 299.409Z" fill="url(#paint11_linear_186_229)"/>
<path d="M147.156 423.442V388.799L81.4955 350.919V385.562L147.156 423.442Z" fill="url(#paint12_linear_186_229)"/>
<path d="M81.6627 351.012L81.4955 351.105V385.562L111.512 368.241L81.6627 351.012Z" fill="url(#paint13_linear_186_229)"/>
<path d="M144.61 470.292V435.649L78.949 397.77V432.413L144.61 470.292Z" fill="url(#paint14_linear_186_229)"/>
<path d="M79.1162 397.862L78.949 397.955V432.413L108.965 415.091L79.1162 397.862Z" fill="url(#paint15_linear_186_229)"/>
<path opacity="0.56" d="M296.43 111.941L249.102 84.6512L249.028 112.59L296.356 139.88L296.43 111.941Z" fill="#A5FFFF"/>
<path opacity="0.56" d="M296.987 143.385L267.621 126.462L267.593 136.838L296.96 153.761L296.987 143.385Z" fill="#A5FFFF"/>
<path opacity="0.56" d="M289.205 87.6093L280.159 82.3979L280.131 92.7742L289.177 97.9855L289.205 87.6093Z" fill="#A5FFFF"/>
<path opacity="0.56" d="M224.064 60.8201C224.064 60.8201 227.407 48.0422 232.19 50.7963C236.973 53.5503 237.93 64.4272 241.691 66.5971C245.452 68.7669 245.657 62.3223 247.988 63.6669C250.31 65.0022 250.328 72.068 252.752 73.4682C255.176 74.8684 256.904 69.0915 260.851 71.3633C265.736 74.1729 268.559 86.4687 268.559 86.4687L224.055 60.8201M271.838 64.2603L220.916 34.9027L220.832 65.2154L271.754 94.5731L271.838 64.2603Z" fill="#A5FFFF"/>
<path d="M232.19 50.7963C227.407 48.033 224.064 60.8202 224.064 60.8202L268.568 86.4687C268.568 86.4687 265.736 74.173 260.86 71.3634C256.913 69.0822 255.185 74.8592 252.762 73.4683C250.328 72.0681 250.319 65.0115 247.997 63.6669C245.675 62.3224 245.462 68.767 241.7 66.5971C237.939 64.4273 236.992 53.5596 232.2 50.7963" fill="#B4FFFF"/>
<path opacity="0.56" d="M230.909 100.434V95.5653L230.937 90.6971L234.605 95.25L238.273 99.8123L234.586 100.128L230.899 100.443M233.89 83.9372C227.491 80.2467 222.29 83.2047 222.262 90.5487C222.244 97.8928 227.417 106.841 233.816 110.532C240.214 114.222 245.425 111.255 245.443 103.911C245.462 96.5668 240.289 87.6278 233.89 83.9372Z" fill="#A5FFFF"/>
<path opacity="0.81" d="M230.937 90.697L230.927 95.5652L230.909 100.433L234.596 100.127L238.283 99.8029L234.614 95.25L230.937 90.697Z" fill="#B8FFFF"/>
<path opacity="0.56" d="M221.315 118.998C219.885 118.172 218.724 116.16 218.724 114.519C218.724 112.868 219.894 112.21 221.334 113.035C222.773 113.86 223.934 115.873 223.925 117.523C223.925 119.164 222.754 119.832 221.315 119.007M239.444 117.366L210.43 100.637L210.375 121.714V118.478L215.77 115.418L221.222 124.849L232.227 118.59L239.406 131.006L239.444 117.366Z" fill="#A5FFFF"/>
<path d="M232.218 118.58L221.213 124.839L215.761 115.409L210.375 118.46L210.365 121.705L239.379 138.424L239.397 130.987L232.218 118.58Z" fill="#B4FFFF"/>
<path d="M221.334 113.035C219.903 112.21 218.733 112.878 218.724 114.519C218.724 116.16 219.885 118.172 221.315 118.998C222.754 119.823 223.925 119.164 223.925 117.514C223.925 115.863 222.764 113.86 221.334 113.026" fill="#B4FFFF"/>
</g>
<g clip-path="url(#clip1_186_229)">
<path d="M447 333.625L349.714 388.006L252 333.625L349.714 279.235L447 333.625Z" fill="url(#paint16_linear_186_229)"/>
<path d="M447 333.625V468.125L349.714 522.514V388.006L447 333.625Z" fill="url(#paint17_linear_186_229)"/>
<path d="M349.714 388.006V522.514L252 468.125V333.625L349.714 388.006Z" fill="url(#paint18_linear_186_229)"/>
<path d="M349.714 398.779L447 344.389V342.992L349.714 397.374V398.779Z" fill="#D7D095"/>
<path d="M252 344.389L349.714 398.779V397.374L252 342.992V344.389Z" fill="#D7D095"/>
<path d="M396.822 319.432C396.822 319.5 396.813 319.577 396.795 319.646C396.786 319.706 396.768 319.757 396.75 319.817C396.733 319.886 396.715 319.954 396.688 320.023C396.67 320.074 396.644 320.134 396.617 320.186C396.581 320.254 396.555 320.331 396.51 320.4C396.483 320.451 396.448 320.503 396.412 320.554C396.359 320.631 396.305 320.709 396.243 320.794C396.207 320.837 396.172 320.889 396.127 320.931C396.038 321.034 395.94 321.137 395.834 321.24C395.798 321.274 395.762 321.317 395.718 321.351C395.647 321.411 395.576 321.463 395.504 321.523C395.442 321.574 395.38 321.626 395.309 321.677C395.228 321.728 395.139 321.788 395.059 321.84C394.97 321.891 394.89 321.951 394.792 322.003L335.411 355.24C332.679 356.766 328.229 356.766 325.479 355.24L298.111 340.027C296.732 339.256 296.037 338.244 296.037 337.233V340.73C296.029 341.741 296.714 342.752 298.102 343.524L325.47 358.737C328.22 360.262 332.67 360.262 335.402 358.737L394.783 325.5C394.783 325.5 394.837 325.465 394.872 325.448C394.935 325.414 394.997 325.371 395.05 325.328C395.139 325.277 395.22 325.225 395.3 325.165C395.371 325.114 395.433 325.062 395.495 325.011C395.567 324.951 395.647 324.9 395.709 324.84C395.727 324.831 395.736 324.814 395.754 324.805C395.78 324.78 395.798 324.754 395.825 324.728C395.932 324.625 396.029 324.523 396.118 324.42C396.136 324.394 396.163 324.377 396.181 324.351C396.199 324.325 396.207 324.308 396.225 324.283C396.288 324.205 396.341 324.128 396.385 324.051C396.403 324.017 396.439 323.983 396.457 323.948C396.466 323.931 396.474 323.914 396.483 323.897C396.519 323.828 396.555 323.76 396.581 323.683C396.599 323.64 396.626 323.597 396.644 323.563C396.644 323.545 396.644 323.537 396.652 323.52C396.679 323.451 396.697 323.383 396.715 323.314C396.724 323.271 396.741 323.22 396.759 323.177C396.759 323.168 396.759 323.151 396.759 323.143C396.777 323.074 396.777 322.997 396.786 322.928C396.786 322.885 396.804 322.834 396.804 322.791C396.804 322.774 396.804 322.748 396.804 322.731V319.234C396.813 319.303 396.804 319.363 396.804 319.432H396.822Z" fill="#162A56"/>
<path d="M394.774 316.44C397.524 317.966 397.542 320.451 394.81 321.986L335.429 355.223C332.697 356.748 328.247 356.748 325.496 355.223L298.129 340.01C295.379 338.484 295.361 335.999 298.093 334.465L357.474 301.227C360.207 299.702 364.657 299.702 367.407 301.227L394.774 316.44ZM333.996 354.426L393.377 321.188C395.326 320.1 395.317 318.326 393.35 317.229L390.885 315.858L387.165 315.952L368.288 305.453L368.448 303.379L365.983 302.007C364.025 300.919 360.839 300.919 358.889 302.007L299.508 335.244C297.559 336.333 297.568 338.107 299.535 339.204L326.903 354.417C328.861 355.506 332.047 355.506 333.996 354.417" fill="url(#paint19_linear_186_229)"/>
<path d="M393.351 317.237C395.309 318.326 395.317 320.1 393.377 321.197L333.996 354.434C332.047 355.523 328.87 355.523 326.903 354.434L299.535 339.221C297.577 338.133 297.568 336.359 299.508 335.262L358.89 302.024C360.839 300.936 364.016 300.936 365.983 302.024L368.448 303.396L368.288 305.47L387.165 315.969L390.885 315.875L393.351 317.246V317.237Z" fill="#165DA4"/>
<path d="M393.351 317.237C395.309 318.326 395.317 320.1 393.377 321.197L333.996 354.434C332.047 355.523 328.87 355.523 326.903 354.434L299.535 339.221C297.577 338.133 297.568 336.359 299.508 335.262L358.89 302.024C360.839 300.936 364.016 300.936 365.983 302.024L368.448 303.396L368.288 305.47L387.165 315.969L390.885 315.875L393.351 317.246V317.237Z" fill="#165DA4"/>
<g style="mix-blend-mode:multiply" opacity="0.3">
<path d="M318.679 313.209C322.115 315.12 322.132 318.214 318.724 320.117C315.297 322.037 309.752 322.037 306.317 320.126C302.882 318.214 302.846 315.112 306.272 313.201C309.69 311.289 315.244 311.298 318.679 313.201V313.209Z" fill="#1A9BDB"/>
</g>
<path d="M307.34 314.683C307.34 314.683 306.842 314.743 306.753 314.923C306.664 315.103 306.611 316.68 306.62 316.895C306.62 316.895 307.928 318.129 309.147 318.729C310.366 319.329 311.426 319.594 311.897 319.2C312.369 318.806 312.075 318.352 311.07 317.563C310.064 316.775 309.094 314.675 309.094 314.675H307.34V314.683Z" fill="#103450"/>
<path d="M313.757 312.198C313.757 312.198 313.259 312.258 313.17 312.438C313.081 312.618 313.028 314.195 313.036 314.409C313.036 314.409 314.345 315.643 315.564 316.243C316.783 316.843 317.843 317.109 318.314 316.715C318.786 316.32 318.492 315.866 317.487 315.078C316.481 314.289 315.511 312.189 315.511 312.189H313.757V312.198Z" fill="#103450"/>
<path d="M317.3 289.365C317.3 289.365 317.264 289.991 317.237 290.111C317.211 290.231 316.65 291.028 316.641 291.294C316.632 291.56 316.926 291.774 316.926 291.774C316.926 291.774 316.935 292.357 316.997 292.477C317.059 292.597 317.611 292.519 317.673 292.554C317.736 292.588 318.092 292.802 318.332 292.708C318.572 292.614 319.231 292.417 319.311 292.331C319.391 292.245 319.462 290.3 319.16 288.808C319.062 288.311 318.599 276.741 318.323 276.827C317.771 276.998 317.309 289.374 317.309 289.374L317.3 289.365Z" fill="#FFC6A0"/>
<path d="M319.053 278.189C318.804 277.041 318.501 275.721 318.243 274.804C317.7 272.875 317.3 271.376 316.134 271.35L315.733 277.889C315.733 277.889 315.858 278.875 316.071 279.989C317.122 279.492 318.092 278.849 319.053 278.198V278.189Z" fill="white"/>
<path d="M306.593 290.54L306.504 315.163C306.504 315.163 307.919 315.995 309.557 315.103C309.557 315.103 312.449 293.831 312.502 293.334C312.547 292.871 312.912 312.755 312.912 312.755C312.912 312.755 314.701 313.749 316.071 312.404L317.682 288.851L306.602 290.557L306.593 290.54Z" fill="#103450"/>
<path d="M309.138 272.147C309.138 272.147 307.234 272.824 305.543 274.161L306.593 290.548C306.593 290.548 308.791 292.1 313.295 290.968C316.961 290.043 317.923 288.56 317.923 288.56C317.923 288.56 318.261 280.512 317.914 277.101C317.567 273.698 316.134 271.358 316.134 271.358C315.333 271.127 313.571 271.221 313.571 271.221L309.147 272.155L309.138 272.147Z" fill="white"/>
<path d="M313.873 262.153C313.09 261.879 312.431 261.888 311.577 261.974C309.966 262.136 308.613 262.891 308.346 264.553C308.141 265.805 308.631 267.082 309.138 268.204C309.815 269.696 310.295 269.156 310.295 269.156C311.612 268.65 312.921 268.136 314.238 267.63C314.603 267.493 315.146 267.382 315.448 267.133C315.929 266.73 315.769 266.036 315.858 265.487C315.974 264.759 316.089 264.142 315.671 263.465C315.342 262.925 314.79 262.539 314.202 262.291C314.087 262.239 313.98 262.196 313.864 262.162L313.873 262.153Z" fill="#103450"/>
<path d="M309.877 271.35L309.779 268.067C309.779 268.067 308.925 268.007 309.067 267.099C309.218 266.199 310.091 266.79 310.251 267.056C310.251 267.056 310.447 263.945 312.164 263.645C313.873 263.345 315.537 263.696 315.582 264.502C315.626 265.308 315.68 268.11 315.582 269.156C315.484 270.201 314.638 270.63 313.072 270.587L313.179 272.275C313.179 272.275 312.396 272.833 310.206 272.318L309.895 271.358L309.877 271.35Z" fill="#FFC6A0"/>
<path d="M313.081 270.938C313.081 270.938 313.384 270.938 313.499 270.998C313.615 271.058 314.238 271.667 314.256 272.327C314.274 272.995 313.989 273.75 313.989 273.75L312.574 272.515L311.684 274.178C311.684 274.178 311.123 274.075 310.366 273.518C309.601 272.961 309.147 272.138 309.147 272.138C309.396 271.538 309.557 271.178 309.557 271.178C309.61 271.041 309.886 270.973 309.886 270.973C309.886 270.973 311.399 272.293 312.583 272.361C312.583 272.361 313.001 272.173 313.09 270.93L313.081 270.938Z" fill="white"/>
<path d="M306.575 291.654C306.575 291.654 306.744 292.262 306.789 292.374C306.842 292.485 307.554 293.154 307.616 293.411C307.679 293.668 307.438 293.942 307.438 293.942C307.438 293.942 307.554 294.516 307.518 294.645C307.483 294.774 306.922 294.808 306.869 294.851C306.815 294.894 306.513 295.176 306.255 295.125C306.005 295.074 305.311 295.014 305.213 294.945C305.115 294.885 304.644 292.982 304.626 291.465C304.626 290.9 304.822 279.526 304.822 279.526C304.982 279.561 307.394 280.452 307.394 280.452L306.557 291.654H306.575Z" fill="#FFC6A0"/>
<path d="M307.554 281.283C307.59 279.843 307.643 278.275 307.625 277.898C307.563 276.612 307.563 272.987 305.534 274.152C304.715 274.624 304.528 278.138 304.359 280.503C305.276 281.112 306.717 281.275 307.554 281.275V281.283Z" fill="white"/>
<path d="M315.671 264.922C315.867 264.57 315.804 264.116 315.582 263.773C315.359 263.431 314.995 263.191 314.621 263.019C313.686 262.582 311.061 262.102 310.989 263.671C310.954 264.45 311.657 265.753 312.627 265.59C313.045 265.522 313.286 265.145 313.748 265.273C313.98 265.333 314.594 265.899 314.63 265.299C315.021 265.453 315.484 265.282 315.68 264.93L315.671 264.922Z" fill="#103450"/>
<path d="M309.699 266.422C310.18 266.807 310.5 267.382 310.571 267.982C310.678 267.982 310.785 267.982 310.9 267.982C310.883 267.57 310.918 267.193 310.9 266.782C311.506 266.113 311.79 265.188 311.595 264.322C311.515 263.97 311.301 263.576 310.927 263.542C310.553 263.508 310.26 263.859 310.108 264.193C309.779 264.879 309.61 265.659 309.708 266.413L309.699 266.422Z" fill="#103450"/>
<path style="mix-blend-mode:overlay" opacity="0.56" d="M280.409 217.492C280.676 233.424 298.084 337.559 298.084 337.559H298.111C298.245 338.159 298.699 338.741 299.535 339.204L326.903 354.417C328.861 355.506 332.047 355.506 333.996 354.417L393.377 321.18C394.338 320.64 394.819 319.929 394.828 319.226C394.828 319.226 404.903 255.365 409.824 217.492H280.409Z" fill="url(#paint20_linear_186_229)"/>
<path opacity="0.6" d="M361.996 322.26C361.613 322.474 361.301 322.303 361.301 321.874C361.301 321.446 361.604 320.931 361.996 320.717L365.387 318.832C365.769 318.617 366.081 318.789 366.081 319.217C366.081 319.646 365.778 320.16 365.387 320.374L361.996 322.26ZM344.908 328.525C344.525 328.739 344.213 328.568 344.213 328.139C344.213 327.719 344.516 327.205 344.908 326.991L350.559 323.845C350.933 323.64 351.244 323.803 351.244 324.223C351.244 324.651 350.942 325.165 350.559 325.371L344.908 328.516M344.899 325.294C344.516 325.508 344.204 325.337 344.204 324.908C344.204 324.48 344.507 323.965 344.899 323.751L358.498 316.192C358.872 315.986 359.183 316.149 359.183 316.577C359.183 317.006 358.881 317.52 358.498 317.726L344.899 325.285M361.186 316.226C360.803 316.44 360.492 316.269 360.492 315.84C360.492 315.412 360.794 314.898 361.186 314.683L365.369 312.361C365.751 312.146 366.063 312.318 366.063 312.746C366.063 313.175 365.76 313.689 365.369 313.903L361.186 316.226ZM368.849 318.437L368.813 307.244L377.001 302.693L377.037 313.886L368.849 318.437ZM344.89 322.054C344.507 322.268 344.196 322.097 344.196 321.686C344.196 321.257 344.498 320.743 344.89 320.529L349.073 318.206C349.455 317.992 349.767 318.163 349.767 318.592C349.767 319.012 349.464 319.526 349.073 319.74L344.89 322.063M351.761 318.24C351.378 318.454 351.066 318.283 351.066 317.872C351.066 317.443 351.369 316.929 351.761 316.715L365.36 309.155C365.743 308.941 366.054 309.112 366.054 309.541C366.054 309.961 365.751 310.475 365.36 310.689L351.761 318.249M344.872 315.609C344.489 315.823 344.178 315.652 344.178 315.24C344.178 314.812 344.48 314.298 344.872 314.083L351.36 310.475C351.743 310.261 352.054 310.432 352.054 310.861C352.054 311.281 351.752 311.786 351.36 312.009L344.872 315.618M344.863 312.395C344.48 312.609 344.169 312.438 344.169 312.009C344.169 311.589 344.471 311.075 344.863 310.861L370.21 296.771C370.593 296.556 370.905 296.728 370.905 297.139C370.905 297.568 370.602 298.082 370.21 298.296L344.863 312.386M372.898 296.796C372.524 297.002 372.204 296.839 372.204 296.411C372.204 295.991 372.516 295.476 372.898 295.262L376.289 293.377C376.672 293.162 376.983 293.334 376.983 293.745C376.983 294.174 376.681 294.688 376.289 294.902L372.898 296.788M344.854 309.155C344.471 309.369 344.16 309.19 344.16 308.77C344.16 308.341 344.463 307.827 344.854 307.613L364.719 296.573C365.102 296.359 365.413 296.531 365.413 296.959C365.413 297.379 365.111 297.902 364.719 298.116L344.854 309.155ZM367.736 296.428C367.362 296.633 367.051 296.462 367.051 296.042C367.051 295.614 367.353 295.099 367.736 294.894L376.28 290.145C376.663 289.931 376.974 290.103 376.974 290.531C376.974 290.951 376.672 291.474 376.28 291.688L367.736 296.436M344.836 305.924C344.454 306.138 344.142 305.967 344.142 305.538C344.142 305.118 344.445 304.604 344.836 304.39L376.262 286.914C376.645 286.7 376.957 286.871 376.957 287.283C376.957 287.711 376.654 288.226 376.262 288.44L344.836 305.916M344.409 301.227L344.365 284.617L376.894 266.533L376.939 283.143L344.409 301.227ZM380.748 258.254L340.466 280.649C339.381 281.258 338.5 282.723 338.5 283.923L338.66 338.253C338.66 339.461 339.55 339.941 340.636 339.341L380.917 316.946C382.003 316.337 382.884 314.872 382.884 313.672L382.724 259.342C382.724 258.134 381.834 257.654 380.748 258.254Z" fill="#00EDF9"/>
<path d="M376.894 266.533L344.365 284.626L344.409 301.236L376.948 283.143L376.894 266.533Z" fill="#A5FFFF"/>
<path d="M376.262 286.931L344.836 304.407C344.454 304.621 344.142 305.136 344.142 305.556C344.142 305.984 344.454 306.155 344.836 305.941L376.262 288.466C376.645 288.251 376.957 287.737 376.957 287.309C376.957 286.889 376.645 286.726 376.262 286.94" fill="#A5FFFF"/>
<path d="M364.701 296.582L344.836 307.621C344.454 307.835 344.142 308.35 344.142 308.778C344.142 309.198 344.454 309.378 344.836 309.164L364.701 298.125C365.084 297.91 365.395 297.388 365.395 296.968C365.395 296.539 365.084 296.368 364.701 296.582Z" fill="#A5FFFF"/>
<path d="M376.271 290.154L367.727 294.902C367.353 295.108 367.042 295.622 367.042 296.051C367.042 296.471 367.353 296.651 367.727 296.436L376.271 291.688C376.654 291.474 376.966 290.951 376.966 290.531C376.966 290.103 376.654 289.931 376.271 290.145" fill="#A5FFFF"/>
<path d="M370.202 296.762L344.854 310.852C344.471 311.066 344.16 311.581 344.16 312.001C344.16 312.429 344.471 312.601 344.854 312.386L370.202 298.296C370.584 298.082 370.896 297.568 370.896 297.139C370.896 296.719 370.584 296.556 370.202 296.771" fill="#A5FFFF"/>
<path d="M376.28 293.385L372.889 295.271C372.516 295.476 372.195 295.999 372.195 296.419C372.195 296.848 372.516 297.011 372.889 296.805L376.28 294.919C376.663 294.705 376.974 294.191 376.974 293.762C376.974 293.342 376.663 293.179 376.28 293.394" fill="#A5FFFF"/>
<path d="M351.351 310.475L344.863 314.083C344.48 314.298 344.169 314.812 344.169 315.24C344.169 315.66 344.48 315.823 344.863 315.609L351.351 312.001C351.734 311.786 352.045 311.272 352.045 310.852C352.045 310.424 351.734 310.252 351.351 310.467" fill="#A5FFFF"/>
<path d="M365.36 312.378L361.177 314.7C360.794 314.915 360.483 315.429 360.483 315.858C360.483 316.286 360.794 316.457 361.177 316.243L365.36 313.921C365.743 313.706 366.054 313.192 366.054 312.764C366.054 312.335 365.743 312.164 365.36 312.378Z" fill="#A5FFFF"/>
<path d="M358.489 316.2L344.89 323.76C344.507 323.974 344.196 324.488 344.196 324.917C344.196 325.345 344.507 325.517 344.89 325.302L358.489 317.743C358.863 317.537 359.174 317.023 359.174 316.595C359.174 316.166 358.863 315.995 358.489 316.209" fill="#A5FFFF"/>
<path d="M365.378 318.84L361.987 320.726C361.604 320.94 361.293 321.454 361.293 321.883C361.293 322.311 361.604 322.483 361.987 322.268L365.378 320.383C365.76 320.169 366.072 319.654 366.072 319.226C366.072 318.797 365.76 318.626 365.378 318.84Z" fill="#A5FFFF"/>
<path d="M350.559 323.854L344.908 326.999C344.525 327.214 344.213 327.728 344.213 328.148C344.213 328.576 344.525 328.748 344.908 328.534L350.559 325.388C350.933 325.182 351.244 324.668 351.244 324.24C351.244 323.82 350.933 323.657 350.559 323.863" fill="#A5FFFF"/>
<path d="M349.064 318.214L344.881 320.537C344.498 320.751 344.187 321.266 344.187 321.694C344.187 322.114 344.498 322.277 344.881 322.063L349.064 319.74C349.447 319.526 349.758 319.012 349.758 318.592C349.758 318.163 349.447 317.992 349.064 318.206" fill="#A5FFFF"/>
<path d="M365.351 309.155L351.752 316.715C351.369 316.929 351.057 317.443 351.057 317.872C351.057 318.292 351.369 318.454 351.752 318.24L365.351 310.681C365.734 310.467 366.045 309.952 366.045 309.532C366.045 309.104 365.734 308.932 365.351 309.147" fill="#A5FFFF"/>
<path d="M377.001 302.701L368.813 307.253L368.849 318.446L377.037 313.895L377.001 302.701Z" fill="#A5FFFF"/>
</g>
<defs>
<linearGradient id="paint0_linear_186_229" x1="168.526" y1="37.119" x2="166.184" y2="373.471" gradientUnits="userSpaceOnUse">
<stop offset="0.04" stop-color="#93FFFD" stop-opacity="0"/>
<stop offset="0.14" stop-color="#95FEFD" stop-opacity="0.07"/>
<stop offset="0.33" stop-color="#9AFDFD" stop-opacity="0.25"/>
<stop offset="0.61" stop-color="#A3FCFE" stop-opacity="0.54"/>
<stop offset="0.95" stop-color="#B0FBFE" stop-opacity="0.94"/>
<stop offset="1" stop-color="#B2FBFF"/>
</linearGradient>
<linearGradient id="paint1_linear_186_229" x1="194.168" y1="131.303" x2="141.063" y2="281.685" gradientUnits="userSpaceOnUse">
<stop stop-color="#EEE9DA"/>
<stop offset="1" stop-color="#3C6255"/>
</linearGradient>
<linearGradient id="paint2_linear_186_229" x1="167.867" y1="376.29" x2="335" y2="376.29" gradientUnits="userSpaceOnUse">
<stop stop-color="#689585"/>
<stop offset="1" stop-color="#3E6457"/>
<stop offset="1" stop-color="#61876E"/>
</linearGradient>
<linearGradient id="paint3_linear_186_229" x1="0" y1="376.29" x2="167.867" y2="376.29" gradientUnits="userSpaceOnUse">
<stop stop-color="#61876E"/>
<stop offset="1" stop-color="#41675A"/>
</linearGradient>
<linearGradient id="paint4_linear_186_229" x1="167.663" y1="83.7518" x2="167.301" y2="122.568" gradientUnits="userSpaceOnUse">
<stop offset="0.04" stop-color="#93FFFD" stop-opacity="0"/>
<stop offset="0.14" stop-color="#95FEFD" stop-opacity="0.07"/>
<stop offset="0.33" stop-color="#9AFDFD" stop-opacity="0.25"/>
<stop offset="0.61" stop-color="#A3FCFE" stop-opacity="0.54"/>
<stop offset="0.95" stop-color="#B0FBFE" stop-opacity="0.94"/>
<stop offset="1" stop-color="#B2FBFF"/>
</linearGradient>
<linearGradient id="paint5_linear_186_229" x1="23.7846" y1="166.539" x2="23.4236" y2="205.364" gradientUnits="userSpaceOnUse">
<stop offset="0.04" stop-color="#93FFFD" stop-opacity="0"/>
<stop offset="0.14" stop-color="#95FEFD" stop-opacity="0.07"/>
<stop offset="0.33" stop-color="#9AFDFD" stop-opacity="0.25"/>
<stop offset="0.61" stop-color="#A3FCFE" stop-opacity="0.54"/>
<stop offset="0.95" stop-color="#B0FBFE" stop-opacity="0.94"/>
<stop offset="1" stop-color="#B2FBFF"/>
</linearGradient>
<linearGradient id="paint6_linear_186_229" x1="314.011" y1="166.539" x2="313.65" y2="205.364" gradientUnits="userSpaceOnUse">
<stop offset="0.04" stop-color="#93FFFD" stop-opacity="0"/>
<stop offset="0.14" stop-color="#95FEFD" stop-opacity="0.07"/>
<stop offset="0.33" stop-color="#9AFDFD" stop-opacity="0.25"/>
<stop offset="0.61" stop-color="#A3FCFE" stop-opacity="0.54"/>
<stop offset="0.95" stop-color="#B0FBFE" stop-opacity="0.94"/>
<stop offset="1" stop-color="#B2FBFF"/>
</linearGradient>
<linearGradient id="paint7_linear_186_229" x1="167.663" y1="247.676" x2="167.301" y2="286.501" gradientUnits="userSpaceOnUse">
<stop offset="0.04" stop-color="#93FFFD" stop-opacity="0"/>
<stop offset="0.14" stop-color="#95FEFD" stop-opacity="0.07"/>
<stop offset="0.33" stop-color="#9AFDFD" stop-opacity="0.25"/>
<stop offset="0.61" stop-color="#A3FCFE" stop-opacity="0.54"/>
<stop offset="0.95" stop-color="#B0FBFE" stop-opacity="0.94"/>
<stop offset="1" stop-color="#B2FBFF"/>
</linearGradient>
<linearGradient id="paint8_linear_186_229" x1="179.755" y1="142.662" x2="157.792" y2="275.274" gradientUnits="userSpaceOnUse">
<stop stop-color="#CDEFFB"/>
<stop offset="1" stop-color="#89DAF4"/>
</linearGradient>
<linearGradient id="paint9_linear_186_229" x1="71.0566" y1="137.71" x2="194.159" y2="137.71" gradientUnits="userSpaceOnUse">
<stop stop-color="#CDEFFB"/>
<stop offset="1" stop-color="#89DAF4"/>
</linearGradient>
<linearGradient id="paint10_linear_186_229" x1="124.858" y1="320.282" x2="99.6775" y2="356.965" gradientUnits="userSpaceOnUse">
<stop stop-color="#A4B2A4"/>
<stop offset="1" stop-color="#557B67"/>
</linearGradient>
<linearGradient id="paint11_linear_186_229" x1="111.623" y1="311.584" x2="54.2796" y2="321.35" gradientUnits="userSpaceOnUse">
<stop offset="0.15" stop-color="#679485"/>
<stop offset="1" stop-color="#9AAB9C"/>
<stop offset="1" stop-color="#1A7CDE"/>
</linearGradient>
<linearGradient id="paint12_linear_186_229" x1="124.858" y1="371.885" x2="99.6775" y2="408.568" gradientUnits="userSpaceOnUse">
<stop stop-color="#42695B"/>
<stop offset="1" stop-color="#EEE9DA"/>
</linearGradient>
<linearGradient id="paint13_linear_186_229" x1="-4.71399e-05" y1="363.187" x2="0.925812" y2="372.914" gradientUnits="userSpaceOnUse">
<stop offset="0.15" stop-color="#9DAD9E"/>
<stop offset="1" stop-color="#5F856D"/>
</linearGradient>
<linearGradient id="paint14_linear_186_229" x1="122.311" y1="418.735" x2="97.1311" y2="455.418" gradientUnits="userSpaceOnUse">
<stop stop-color="#42695B"/>
<stop offset="1" stop-color="#EEE9DA"/>
</linearGradient>
<linearGradient id="paint15_linear_186_229" x1="-2.54649" y1="410.037" x2="-1.62064" y2="419.765" gradientUnits="userSpaceOnUse">
<stop offset="0.15" stop-color="#9DAD9E"/>
<stop offset="1" stop-color="#5F856D"/>
</linearGradient>
<linearGradient id="paint16_linear_186_229" x1="365.022" y1="291.362" x2="336.04" y2="376.445" gradientUnits="userSpaceOnUse">
<stop stop-color="#CACEBF"/>
<stop offset="1" stop-color="#44685A"/>
</linearGradient>
<linearGradient id="paint17_linear_186_229" x1="349.714" y1="428.065" x2="447" y2="428.065" gradientUnits="userSpaceOnUse">
<stop stop-color="#416B5D"/>
<stop offset="1" stop-color="#608D7E"/>
</linearGradient>
<linearGradient id="paint18_linear_186_229" x1="252" y1="428.065" x2="349.714" y2="428.065" gradientUnits="userSpaceOnUse">
<stop stop-color="#5E897B"/>
<stop offset="1" stop-color="#406659"/>
</linearGradient>
<linearGradient id="paint19_linear_186_229" x1="360.714" y1="300.336" x2="322.427" y2="381.026" gradientUnits="userSpaceOnUse">
<stop stop-color="#CDEFFB"/>
<stop offset="1" stop-color="#89DAF4"/>
</linearGradient>
<linearGradient id="paint20_linear_186_229" x1="344.258" y1="242.475" x2="341.088" y2="341.663" gradientUnits="userSpaceOnUse">
<stop offset="0.04" stop-color="#93FFFD" stop-opacity="0"/>
<stop offset="0.14" stop-color="#95FEFD" stop-opacity="0.07"/>
<stop offset="0.33" stop-color="#9AFDFD" stop-opacity="0.25"/>
<stop offset="0.61" stop-color="#A3FCFE" stop-opacity="0.54"/>
<stop offset="0.95" stop-color="#B0FBFE" stop-opacity="0.94"/>
<stop offset="1" stop-color="#B2FBFF"/>
</linearGradient>
<clipPath id="clip0_186_229">
<rect width="335" height="546" fill="white"/>
</clipPath>
<clipPath id="clip1_186_229">
<rect width="195" height="305.023" fill="white" transform="translate(252 217.492)"/>
</clipPath>
</defs>
</svg>
