<svg width="18" height="18" viewBox="0 0 18 18" fill="none" xmlns="http://www.w3.org/2000/svg">
<path d="M3 4.5L7.58073 7.9592L7.58225 7.96047C8.09089 8.33346 8.34535 8.52007 8.62407 8.59216C8.87042 8.65588 9.12938 8.65588 9.37573 8.59216C9.6547 8.52001 9.9099 8.33285 10.4194 7.9592C10.4194 7.9592 13.3576 5.70445 15 4.5M2.25 11.8501V6.15015C2.25 5.31007 2.25 4.88972 2.41349 4.56885C2.5573 4.2866 2.7866 4.0573 3.06885 3.91349C3.38972 3.75 3.81007 3.75 4.65015 3.75H13.3501C14.1902 3.75 14.6097 3.75 14.9305 3.91349C15.2128 4.0573 15.4429 4.2866 15.5867 4.56885C15.75 4.8894 15.75 5.30925 15.75 6.14768V11.8527C15.75 12.6911 15.75 13.1104 15.5867 13.4309C15.4429 13.7132 15.2128 13.9429 14.9305 14.0867C14.61 14.25 14.1908 14.25 13.3523 14.25H4.64768C3.80925 14.25 3.3894 14.25 3.06885 14.0867C2.7866 13.9429 2.5573 13.7132 2.41349 13.4309C2.25 13.11 2.25 12.6902 2.25 11.8501Z" stroke="#EDEDE5" stroke-width="2" stroke-linecap="round" stroke-linejoin="round"/>
</svg>
