<svg width="197" height="91" viewBox="0 0 197 91" fill="none" xmlns="http://www.w3.org/2000/svg">
<g clip-path="url(#clip0_140_148)">
<path d="M24.5071 14.2785C38.9518 33.3633 53.2256 52.214 67.6082 71.2208C77.9779 57.5743 88.2933 44.0058 98.7173 30.2969C103.856 37.1475 108.901 43.881 114.086 50.7939C111.33 53.673 108.598 56.5209 105.726 59.5171C103.328 56.3337 101.03 53.2751 98.6475 50.1073C88.2855 63.7382 78.0012 77.2677 67.6004 90.9532C45.2388 61.4287 22.947 31.9822 0.5 2.3251C1.08989 2.2939 1.47798 2.26269 1.85831 2.26269C16.4427 2.26269 31.027 2.27049 45.6191 2.25488C46.4496 2.25488 46.9774 2.47335 47.4897 3.16777C58.0069 17.2512 68.5629 31.3112 79.1033 45.3712C79.212 45.5195 79.3207 45.6755 79.4914 45.9252C77.0387 49.1554 74.5705 52.3934 72.0013 55.7719C70.643 53.9851 69.3546 52.2842 68.0739 50.5833C59.2565 38.8172 50.4314 27.0589 41.6373 15.2694C41.0785 14.5203 40.5119 14.2395 39.5805 14.2473C34.644 14.2941 29.7075 14.2707 24.4994 14.2707L24.5071 14.2785Z" fill="#A6BB8D"/>
<path d="M63.021 2.30967C73.4218 1.1393 83.7138 -0.0778797 94.0991 0.000144795C103.444 0.0703669 112.681 1.02227 121.591 4.07302C127.296 6.02364 132.52 8.84813 136.634 13.3892C142.532 19.9042 144.046 27.574 142.269 36.0241C140.732 43.3116 137.138 49.6394 132.9 55.6394C125.891 65.5564 117.058 73.6631 107.768 81.3095C104.624 83.8999 101.356 86.3421 98.143 88.8545C97.8791 89.0573 97.5919 89.229 97.2504 89.4553C95.3565 86.9429 93.5014 84.4695 91.6464 81.9961C90.1716 80.0299 88.6814 78.0793 87.2455 76.0819C87.0514 75.8088 86.9816 75.1846 87.1523 74.9505C89.4032 71.9154 91.7007 68.9192 93.9982 65.9153C94.0603 65.8294 94.1767 65.7904 94.3242 65.6812C96.0473 67.9751 97.7626 70.2534 99.5944 72.6878C102.792 69.8555 105.944 67.1637 108.994 64.3548C115.133 58.7136 120.737 52.5887 125.286 45.5665C127.933 41.4858 130.098 37.171 130.843 32.2711C131.697 26.6377 129.733 22.2527 125.123 19.0147C120.955 16.0888 116.205 14.6688 111.307 13.6622C103.095 11.9691 94.7744 11.7428 86.4382 12.1954C81.5871 12.4607 76.7515 12.9834 71.9082 13.3501C71.5589 13.3735 71.0389 13.2253 70.8448 12.9756C68.2524 9.58156 65.7066 6.14848 63.1607 2.7232C63.0986 2.64518 63.0909 2.52034 63.021 2.30967Z" fill="url(#paint0_radial_140_148)"/>
<path d="M129.33 91.0002C127.498 88.558 125.721 86.2172 123.966 83.8531C123.291 82.948 122.15 82.0195 122.142 81.0988C122.142 80.186 123.268 79.2419 123.951 78.3446C142.897 53.3065 161.859 28.2684 180.79 3.22256C181.334 2.50473 181.885 2.24725 182.762 2.25505C186.829 2.29407 190.904 2.27066 194.971 2.27066C195.375 2.27066 195.778 2.27066 196.5 2.27066C174.022 31.9668 151.715 61.4367 129.33 91.0079V91.0002Z" fill="#A6BB8D"/>
</g>
<defs>
<radialGradient id="paint0_radial_140_148" cx="0" cy="0" r="1" gradientUnits="userSpaceOnUse" gradientTransform="translate(99.0087 17.3821) rotate(99.9156) scale(105.355 94.1817)">
<stop stop-color="#353E55"/>
<stop offset="0.0001" stop-color="#61876E"/>
<stop offset="0.208333" stop-color="#EAE7B1"/>
<stop offset="0.419546" stop-color="#61876E"/>
<stop offset="0.527979" stop-color="#EAE7B1"/>
<stop offset="0.645833" stop-color="#61876E"/>
<stop offset="0.75" stop-color="#EAE7B1"/>
<stop offset="0.859375" stop-color="#EAE7B1"/>
<stop offset="1" stop-color="#EAE7B1"/>
</radialGradient>
<clipPath id="clip0_140_148">
<rect width="196" height="91" fill="white" transform="translate(0.5)"/>
</clipPath>
</defs>
</svg>
