<svg width="196" height="472" viewBox="0 0 196 472" fill="none" xmlns="http://www.w3.org/2000/svg">
<g clip-path="url(#clip0_193_4011)">
<g style="mix-blend-mode:color-dodge">
<path opacity="0.81" d="M211.654 -59.5128L187.108 -34.967C183.973 -31.8317 183.973 -26.7484 187.108 -23.6131L211.654 0.932682C214.789 4.06796 219.873 4.06796 223.008 0.932676L247.554 -23.6131C250.689 -26.7484 250.689 -31.8317 247.554 -34.967L223.008 -59.5128C219.873 -62.648 214.789 -62.6481 211.654 -59.5128Z" fill="#757575" fill-opacity="0.5"/>
<path opacity="0.52" d="M118.526 -61.0196L93.9804 -36.4738C90.8451 -33.3385 90.8451 -28.2552 93.9804 -25.1199L118.526 -0.574154C121.661 2.56113 126.745 2.56113 129.88 -0.574153L154.426 -25.1199C157.561 -28.2552 157.561 -33.3385 154.426 -36.4738L129.88 -61.0196C126.745 -64.1549 121.661 -64.1549 118.526 -61.0196Z" fill="#757575" fill-opacity="0.5"/>
<path opacity="0.1" d="M165.839 -13.7021L141.294 10.8437C138.158 13.979 138.158 19.0623 141.294 22.1976L165.839 46.7433C168.975 49.8786 174.058 49.8786 177.193 46.7434L201.739 22.1976C204.874 19.0623 204.874 13.979 201.739 10.8437L177.193 -13.7021C174.058 -16.8374 168.975 -16.8374 165.839 -13.7021Z" fill="#757575" fill-opacity="0.5"/>
<path opacity="0.77" d="M213.171 33.6288L188.626 58.1746C185.49 61.3099 185.49 66.3932 188.626 69.5285L213.171 94.0743C216.307 97.2096 221.39 97.2096 224.525 94.0743L249.071 69.5285C252.206 66.3932 252.206 61.3099 249.071 58.1746L224.525 33.6288C221.39 30.4936 216.307 30.4936 213.171 33.6288Z" fill="#757575" fill-opacity="0.5"/>
<path opacity="0.54" d="M72.7116 -15.209L48.1658 9.33674C45.0305 12.472 45.0305 17.5553 48.1658 20.6906L72.7115 45.2364C75.8468 48.3717 80.9301 48.3717 84.0654 45.2364L108.611 20.6906C111.746 17.5553 111.746 12.472 108.611 9.33673L84.0654 -15.2091C80.9301 -18.3443 75.8468 -18.3443 72.7116 -15.209Z" fill="#757575" fill-opacity="0.5"/>
<path opacity="0.19" d="M120.025 32.122L95.4788 56.6678C92.3435 59.8031 92.3435 64.8864 95.4788 68.0217L120.025 92.5675C123.16 95.7027 128.243 95.7027 131.378 92.5674L155.924 68.0217C159.06 64.8864 159.06 59.8031 155.924 56.6678L131.378 32.122C128.243 28.9867 123.16 28.9867 120.025 32.122Z" fill="#757575" fill-opacity="0.5"/>
<path opacity="0.96" d="M167.357 79.4394L142.811 103.985C139.676 107.12 139.676 112.204 142.811 115.339L167.357 139.885C170.492 143.02 175.575 143.02 178.711 139.885L203.256 115.339C206.392 112.204 206.392 107.12 203.256 103.985L178.711 79.4394C175.575 76.3041 170.492 76.3041 167.357 79.4394Z" fill="#757575" fill-opacity="0.5"/>
<path opacity="0.99" d="M214.67 126.77L190.124 151.316C186.989 154.452 186.989 159.535 190.124 162.67L214.67 187.216C217.805 190.351 222.888 190.351 226.024 187.216L250.57 162.67C253.705 159.535 253.705 154.452 250.57 151.316L226.024 126.77C222.888 123.635 217.805 123.635 214.67 126.77Z" fill="#757575" fill-opacity="0.5"/>
<path opacity="0.24" d="M26.8969 30.6152L2.35113 55.161C-0.784157 58.2962 -0.784149 63.3795 2.35113 66.5148L26.8969 91.0606C30.0322 94.1959 35.1155 94.1959 38.2508 91.0606L62.7966 66.5148C65.9319 63.3795 65.9319 58.2962 62.7966 55.161L38.2508 30.6152C35.1155 27.4799 30.0322 27.4799 26.8969 30.6152Z" fill="#757575" fill-opacity="0.5"/>
<path opacity="0.71" d="M74.2195 77.923L49.6738 102.469C46.5385 105.604 46.5385 110.687 49.6738 113.823L74.2196 138.368C77.3548 141.504 82.4381 141.504 85.5734 138.368L110.119 113.823C113.254 110.687 113.254 105.604 110.119 102.469L85.5734 77.923C82.4381 74.7878 77.3548 74.7877 74.2195 77.923Z" fill="#757575" fill-opacity="0.5"/>
<path opacity="0.13" d="M121.542 125.264L96.9964 149.809C93.8611 152.945 93.8611 158.028 96.9964 161.163L121.542 185.709C124.677 188.844 129.761 188.844 132.896 185.709L157.442 161.163C160.577 158.028 160.577 152.945 157.442 149.809L132.896 125.264C129.761 122.128 124.677 122.128 121.542 125.264Z" fill="#757575" fill-opacity="0.5"/>
<path opacity="0.22" d="M168.878 172.571L144.333 197.117C141.197 200.253 141.197 205.336 144.333 208.471L168.878 233.017C172.014 236.152 177.097 236.152 180.232 233.017L204.778 208.471C207.913 205.336 207.913 200.253 204.778 197.117L180.232 172.571C177.097 169.436 172.014 169.436 168.878 172.571Z" fill="#757575" fill-opacity="0.5"/>
<path opacity="0.81" d="M216.201 219.912L191.655 244.458C188.52 247.593 188.52 252.676 191.655 255.812L216.201 280.357C219.336 283.493 224.42 283.493 227.555 280.357L252.101 255.812C255.236 252.676 255.236 247.593 252.101 244.458L227.555 219.912C224.42 216.777 219.336 216.777 216.201 219.912Z" fill="#757575" fill-opacity="0.5"/>
</g>
<g style="mix-blend-mode:color-dodge">
<path opacity="0.24" d="M194.533 57.3109L178.469 73.3748C176.417 75.4262 176.417 78.7522 178.469 80.8036L194.533 96.8676C196.584 98.919 199.91 98.919 201.962 96.8676L218.026 80.8036C220.077 78.7522 220.077 75.4262 218.026 73.3748L201.962 57.3109C199.91 55.2595 196.584 55.2595 194.533 57.3109Z" fill="#757575" fill-opacity="0.5"/>
</g>
</g>
<defs>
<clipPath id="clip0_193_4011">
<rect width="627" height="627" fill="white" transform="translate(0 -155)"/>
</clipPath>
</defs>
</svg>
