<svg width="397" height="493" viewBox="0 0 397 493" fill="none" xmlns="http://www.w3.org/2000/svg">
<g style="mix-blend-mode:color-dodge">
<path opacity="0.21" d="M-26.8677 458.386L-55.2108 486.729C-58.8311 490.349 -58.8311 496.219 -55.2108 499.839L-26.8677 528.183C-23.2473 531.803 -17.3776 531.803 -13.7573 528.183L14.5859 499.839C18.2062 496.219 18.2062 490.349 14.5859 486.729L-13.7573 458.386C-17.3776 454.766 -23.2473 454.766 -26.8677 458.386Z" fill="#757575" fill-opacity="0.5"/>
<path opacity="0.7" d="M80.6784 460.137L52.3352 488.48C48.7149 492.1 48.7149 497.97 52.3352 501.59L80.6784 529.933C84.2987 533.554 90.1684 533.554 93.7887 529.933L122.132 501.59C125.752 497.97 125.752 492.1 122.132 488.48L93.7887 460.137C90.1684 456.516 84.2987 456.516 80.6784 460.137Z" fill="#757575" fill-opacity="0.5"/>
<path opacity="0.16" d="M26.0237 405.499L-2.31944 433.842C-5.93977 437.463 -5.93979 443.332 -2.31946 446.953L26.0237 475.296C29.644 478.916 35.5137 478.916 39.1341 475.296L67.4772 446.953C71.0975 443.332 71.0975 437.463 67.4772 433.842L39.1341 405.499C35.5137 401.879 29.644 401.879 26.0237 405.499Z" fill="#547C6C" fill-opacity="0.5"/>
<path opacity="0.25" d="M-28.6089 350.846L-56.9521 379.189C-60.5724 382.809 -60.5724 388.679 -56.9521 392.299L-28.6089 420.642C-24.9886 424.263 -19.1189 424.263 -15.4986 420.642L12.8446 392.299C16.4649 388.679 16.4649 382.809 12.8446 379.189L-15.4986 350.846C-19.1189 347.225 -24.9886 347.225 -28.6089 350.846Z" fill="#757575" fill-opacity="0.5"/>
<path opacity="0.1" d="M188.213 461.877L159.87 490.22C156.25 493.84 156.25 499.71 159.87 503.33L188.213 531.673C191.834 535.294 197.703 535.294 201.324 531.673L229.667 503.33C233.287 499.71 233.287 493.84 229.667 490.22L201.324 461.877C197.703 458.256 191.834 458.257 188.213 461.877Z" fill="#757575" fill-opacity="0.5"/>
<path opacity="0.77" d="M133.581 407.239L105.238 435.582C101.617 439.203 101.617 445.072 105.238 448.693L133.581 477.036C137.201 480.656 143.071 480.656 146.691 477.036L175.034 448.693C178.655 445.072 178.655 439.203 175.034 435.582L146.691 407.239C143.071 403.619 137.201 403.619 133.581 407.239Z" fill="#757575" fill-opacity="0.5"/>
<path opacity="0.6" d="M78.926 352.586L50.5829 380.929C46.9626 384.549 46.9626 390.419 50.5829 394.039L78.926 422.382C82.5464 426.003 88.4161 426.003 92.0364 422.382L120.38 394.039C124 390.419 124 384.549 120.38 380.929L92.0364 352.586C88.4161 348.965 82.5464 348.965 78.926 352.586Z" fill="#757575" fill-opacity="0.5"/>
<path opacity="0.47" d="M24.2779 297.948L-4.06529 326.291C-7.68562 329.912 -7.68562 335.781 -4.06529 339.402L24.2779 367.745C27.8982 371.365 33.7679 371.365 37.3882 367.745L65.7314 339.402C69.3517 335.781 69.3517 329.912 65.7314 326.291L37.3882 297.948C33.7679 294.328 27.8982 294.328 24.2779 297.948Z" fill="#757575" fill-opacity="0.5"/>
<path opacity="0.69" d="M-30.3769 243.295L-58.72 271.638C-62.3404 275.258 -62.3404 281.128 -58.72 284.748L-30.3769 313.091C-26.7566 316.712 -20.8868 316.712 -17.2665 313.091L11.0766 284.748C14.697 281.128 14.697 275.258 11.0766 271.638L-17.2665 243.295C-20.8868 239.674 -26.7566 239.674 -30.3769 243.295Z" fill="#757575" fill-opacity="0.5"/>
<path opacity="0.54" d="M295.771 463.632L267.427 491.976C263.807 495.596 263.807 501.466 267.427 505.086L295.77 533.429C299.391 537.049 305.261 537.049 308.881 533.429L337.224 505.086C340.844 501.466 340.844 495.596 337.224 491.976L308.881 463.632C305.261 460.012 299.391 460.012 295.771 463.632Z" fill="#757575" fill-opacity="0.5"/>
<path opacity="0.19" d="M241.116 408.979L212.773 437.322C209.152 440.943 209.152 446.812 212.773 450.433L241.116 478.776C244.736 482.396 250.606 482.396 254.226 478.776L282.569 450.433C286.19 446.812 286.19 440.943 282.569 437.322L254.226 408.979C250.606 405.359 244.736 405.359 241.116 408.979Z" fill="#757575" fill-opacity="0.5"/>
<path opacity="0.96" d="M186.483 354.341L158.14 382.685C154.52 386.305 154.52 392.175 158.14 395.795L186.483 424.138C190.104 427.758 195.973 427.758 199.594 424.138L227.937 395.795C231.557 392.175 231.557 386.305 227.937 382.685L199.594 354.341C195.973 350.721 190.104 350.721 186.483 354.341Z" fill="#757575" fill-opacity="0.5"/>
<path opacity="0.99" d="M131.828 299.688L103.485 328.031C99.865 331.652 99.865 337.521 103.485 341.142L131.828 369.485C135.449 373.105 141.318 373.105 144.939 369.485L173.282 341.142C176.902 337.521 176.902 331.652 173.282 328.031L144.939 299.688C141.318 296.068 135.449 296.068 131.828 299.688Z" fill="#757575" fill-opacity="0.5"/>
<path opacity="0.06" d="M77.1802 245.05L48.8371 273.394C45.2167 277.014 45.2167 282.884 48.837 286.504L77.1802 314.847C80.8005 318.467 86.6702 318.467 90.2906 314.847L118.634 286.504C122.254 282.884 122.254 277.014 118.634 273.394L90.2905 245.05C86.6702 241.43 80.8005 241.43 77.1802 245.05Z" fill="#757575" fill-opacity="0.5"/>
<path opacity="0.41" d="M22.5255 190.397L-5.81763 218.74C-9.43796 222.361 -9.43794 228.23 -5.81761 231.851L22.5255 260.194C26.1459 263.814 32.0156 263.814 35.6359 260.194L63.979 231.851C67.5994 228.23 67.5994 222.361 63.979 218.74L35.6359 190.397C32.0156 186.777 26.1458 186.777 22.5255 190.397Z" fill="#757575" fill-opacity="0.5"/>
<path opacity="0.54" d="M-32.1072 135.759L-60.4503 164.103C-64.0706 167.723 -64.0706 173.593 -60.4503 177.213L-32.1072 205.556C-28.4868 209.176 -22.6171 209.176 -18.9968 205.556L9.34634 177.213C12.9667 173.593 12.9667 167.723 9.34636 164.103L-18.9968 135.759C-22.6171 132.139 -28.4868 132.139 -32.1072 135.759Z" fill="#757575" fill-opacity="0.5"/>
<path opacity="0.24" d="M348.673 410.719L320.33 439.062C316.709 442.683 316.709 448.552 320.33 452.173L348.673 480.516C352.293 484.136 358.163 484.136 361.783 480.516L390.126 452.173C393.747 448.552 393.747 442.683 390.126 439.062L361.783 410.719C358.163 407.099 352.293 407.099 348.673 410.719Z" fill="#757575" fill-opacity="0.5"/>
<path opacity="0.71" d="M294.029 356.092L265.686 384.436C262.066 388.056 262.066 393.926 265.686 397.546L294.029 425.889C297.65 429.509 303.519 429.509 307.14 425.889L335.483 397.546C339.103 393.926 339.103 388.056 335.483 384.436L307.14 356.092C303.519 352.472 297.65 352.472 294.029 356.092Z" fill="#757575" fill-opacity="0.5"/>
<path opacity="0.13" d="M239.386 301.428L211.042 329.771C207.422 333.392 207.422 339.261 211.042 342.882L239.386 371.225C243.006 374.845 248.876 374.845 252.496 371.225L280.839 342.882C284.459 339.261 284.459 333.392 280.839 329.771L252.496 301.428C248.876 297.808 243.006 297.808 239.386 301.428Z" fill="#757575" fill-opacity="0.5"/>
<path opacity="0.22" d="M184.726 246.801L156.383 275.145C152.763 278.765 152.763 284.635 156.383 288.255L184.726 316.598C188.347 320.218 194.216 320.218 197.837 316.598L226.18 288.255C229.8 284.635 229.8 278.765 226.18 275.145L197.837 246.801C194.216 243.181 188.347 243.181 184.726 246.801Z" fill="#757575" fill-opacity="0.5"/>
<path opacity="0.81" d="M130.083 192.137L101.739 220.48C98.1191 224.101 98.1191 229.97 101.739 233.591L130.083 261.934C133.703 265.554 139.573 265.554 143.193 261.934L171.536 233.591C175.156 229.97 175.156 224.101 171.536 220.48L143.193 192.137C139.573 188.517 133.703 188.517 130.083 192.137Z" fill="#757575" fill-opacity="0.5"/>
<path opacity="0.19" d="M75.439 137.511L47.0958 165.854C43.4755 169.474 43.4755 175.344 47.0958 178.964L75.439 207.307C79.0593 210.928 84.929 210.928 88.5493 207.307L116.892 178.964C120.513 175.344 120.513 169.474 116.892 165.854L88.5493 137.511C84.929 133.89 79.0593 133.89 75.439 137.511Z" fill="#757575" fill-opacity="0.5"/>
<path opacity="0.78" d="M20.7953 82.8462L-7.54785 111.189C-11.1682 114.81 -11.1682 120.679 -7.54785 124.3L20.7953 152.643C24.4156 156.263 30.2853 156.263 33.9057 152.643L62.2488 124.3C65.8691 120.679 65.8691 114.81 62.2488 111.189L33.9057 82.8462C30.2853 79.2259 24.4156 79.2259 20.7953 82.8462Z" fill="#757575" fill-opacity="0.5"/>
<path opacity="0.58" d="M-33.8484 28.2196L-62.1915 56.5627C-65.8118 60.1831 -65.8118 66.0528 -62.1915 69.6731L-33.8484 98.0162C-30.2281 101.637 -24.3583 101.637 -20.738 98.0162L7.60514 69.6731C11.2255 66.0528 11.2255 60.1831 7.60513 56.5627L-20.738 28.2196C-24.3583 24.5993 -30.228 24.5993 -33.8484 28.2196Z" fill="#757575" fill-opacity="0.5"/>
</g>
<g style="mix-blend-mode:color-dodge">
<path opacity="0.81" d="M20.0536 472.11L1.50456 490.659C-0.864221 493.028 -0.864237 496.868 1.50454 499.237L20.0536 517.786C22.4224 520.155 26.2629 520.155 28.6317 517.786L47.1808 499.237C49.5496 496.869 49.5496 493.028 47.1808 490.659L28.6317 472.11C26.2629 469.741 22.4224 469.741 20.0536 472.11Z" fill="#757575" fill-opacity="0.5"/>
<path opacity="0.7" d="M-15.7041 436.357L-34.2532 454.906C-36.622 457.275 -36.622 461.116 -34.2532 463.484L-15.7041 482.033C-13.3353 484.402 -9.49477 484.402 -7.12599 482.033L11.4231 463.484C13.7919 461.116 13.7919 457.275 11.4231 454.906L-7.12599 436.357C-9.49477 433.988 -13.3353 433.988 -15.7041 436.357Z" fill="#757575" fill-opacity="0.5"/>
<path opacity="0.52" d="M90.4229 473.25L71.8739 491.799C69.5051 494.168 69.5051 498.009 71.8739 500.377L90.423 518.927C92.7917 521.295 96.6323 521.295 99.0011 518.927L117.55 500.377C119.919 498.009 119.919 494.168 117.55 491.799L99.0011 473.25C96.6323 470.882 92.7917 470.882 90.4229 473.25Z" fill="#757575" fill-opacity="0.5"/>
<path opacity="0.1" d="M54.6653 437.497L36.1162 456.046C33.7474 458.415 33.7474 462.256 36.1162 464.625L54.6653 483.174C57.0341 485.542 60.8746 485.542 63.2434 483.174L81.7924 464.625C84.1612 462.256 84.1612 458.415 81.7924 456.046L63.2434 437.497C60.8746 435.129 57.034 435.129 54.6653 437.497Z" fill="#757575" fill-opacity="0.5"/>
<path opacity="0.77" d="M18.9076 401.745L0.35852 420.294C-2.01026 422.662 -2.01026 426.503 0.35852 428.872L18.9076 447.421C21.2764 449.79 25.1169 449.79 27.4857 447.421L46.0348 428.872C48.4036 426.503 48.4036 422.662 46.0348 420.294L27.4857 401.745C25.1169 399.376 21.2764 399.376 18.9076 401.745Z" fill="#757575" fill-opacity="0.5"/>
<path opacity="0.6" d="M-16.8344 365.992L-35.3835 384.541C-37.7523 386.91 -37.7523 390.75 -35.3835 393.119L-16.8344 411.668C-14.4656 414.037 -10.6251 414.037 -8.2563 411.668L10.2928 393.119C12.6615 390.75 12.6615 386.91 10.2928 384.541L-8.2563 365.992C-10.6251 363.623 -14.4656 363.623 -16.8344 365.992Z" fill="#757575" fill-opacity="0.5"/>
<path opacity="0.54" d="M125.035 438.637L106.486 457.187C104.117 459.555 104.117 463.396 106.486 465.765L125.035 484.314C127.403 486.682 131.244 486.682 133.613 484.314L152.162 465.765C154.531 463.396 154.531 459.555 152.162 457.187L133.613 438.637C131.244 436.269 127.403 436.269 125.035 438.637Z" fill="#757575" fill-opacity="0.5"/>
<path opacity="0.19" d="M89.277 402.885L70.7279 421.434C68.3591 423.803 68.3591 427.643 70.7279 430.012L89.2769 448.561C91.6457 450.93 95.4863 450.93 97.8551 448.561L116.404 430.012C118.773 427.643 118.773 423.803 116.404 421.434L97.8551 402.885C95.4863 400.516 91.6457 400.516 89.277 402.885Z" fill="#757575" fill-opacity="0.5"/>
<path opacity="0.96" d="M53.5193 367.132L34.9702 385.681C32.6014 388.05 32.6014 391.89 34.9702 394.259L53.5193 412.808C55.888 415.177 59.7286 415.177 62.0974 412.808L80.6465 394.259C83.0152 391.89 83.0152 388.05 80.6464 385.681L62.0974 367.132C59.7286 364.763 55.8881 364.763 53.5193 367.132Z" fill="#757575" fill-opacity="0.5"/>
<path opacity="0.99" d="M17.7772 331.379L-0.771851 349.928C-3.14063 352.297 -3.14065 356.137 -0.771868 358.506L17.7772 377.055C20.146 379.424 23.9865 379.424 26.3553 377.055L44.9044 358.506C47.2732 356.137 47.2732 352.297 44.9044 349.928L26.3553 331.379C23.9865 329.01 20.146 329.01 17.7772 331.379Z" fill="#757575" fill-opacity="0.5"/>
<path opacity="0.06" d="M-17.9805 295.626L-36.5296 314.175C-38.8983 316.544 -38.8983 320.384 -36.5295 322.753L-17.9805 341.302C-15.6117 343.671 -11.7712 343.671 -9.40237 341.302L9.14671 322.753C11.5155 320.384 11.5155 316.544 9.14669 314.175L-9.40237 295.626C-11.7712 293.257 -15.6117 293.257 -17.9805 295.626Z" fill="#757575" fill-opacity="0.5"/>
<path opacity="0.24" d="M159.646 404.025L141.097 422.574C138.728 424.943 138.728 428.783 141.097 431.152L159.646 449.701C162.015 452.07 165.856 452.07 168.224 449.701L186.773 431.152C189.142 428.783 189.142 424.943 186.773 422.574L168.224 404.025C165.856 401.656 162.015 401.656 159.646 404.025Z" fill="#757575" fill-opacity="0.5"/>
<path opacity="0.71" d="M123.889 368.272L105.34 386.821C102.971 389.19 102.971 393.03 105.34 395.399L123.889 413.948C126.257 416.317 130.098 416.317 132.467 413.948L151.016 395.399C153.385 393.03 153.385 389.19 151.016 386.821L132.467 368.272C130.098 365.903 126.257 365.903 123.889 368.272Z" fill="#757575" fill-opacity="0.5"/>
<path opacity="0.13" d="M88.131 332.519L69.5819 351.068C67.2131 353.437 67.2131 357.277 69.5819 359.646L88.131 378.195C90.4998 380.564 94.3403 380.564 96.7091 378.195L115.258 359.646C117.627 357.277 117.627 353.437 115.258 351.068L96.7091 332.519C94.3403 330.15 90.4998 330.15 88.131 332.519Z" fill="#757575" fill-opacity="0.5"/>
<path opacity="0.22" d="M52.3733 296.766L33.8242 315.315C31.4554 317.684 31.4554 321.525 33.8242 323.893L52.3733 342.442C54.742 344.811 58.5826 344.811 60.9514 342.442L79.5004 323.893C81.8692 321.525 81.8692 317.684 79.5004 315.315L60.9514 296.766C58.5826 294.397 54.7421 294.397 52.3733 296.766Z" fill="#757575" fill-opacity="0.5"/>
<path opacity="0.81" d="M16.6312 261.013L-1.91785 279.562C-4.28663 281.931 -4.28663 285.772 -1.91785 288.14L16.6312 306.689C19 309.058 22.8406 309.058 25.2093 306.689L43.7584 288.14C46.1272 285.772 46.1272 281.931 43.7584 279.562L25.2093 261.013C22.8405 258.644 19 258.644 16.6312 261.013Z" fill="#757575" fill-opacity="0.5"/>
<path opacity="0.19" d="M-19.1264 225.26L-37.6755 243.809C-40.0443 246.178 -40.0443 250.019 -37.6755 252.387L-19.1264 270.937C-16.7576 273.305 -12.9171 273.305 -10.5483 270.937L8.00073 252.387C10.3695 250.019 10.3695 246.178 8.00075 243.809L-10.5483 225.26C-12.9171 222.892 -16.7577 222.892 -19.1264 225.26Z" fill="#757575" fill-opacity="0.5"/>
</g>
</svg>
